<?xml version="1.0" standalone="no"?>
<!DOCTYPE svg PUBLIC "-//W3C//DTD SVG 20010904//EN"
 "http://www.w3.org/TR/2001/REC-SVG-20010904/DTD/svg10.dtd">
<svg version="1.0" xmlns="http://www.w3.org/2000/svg"
 width="143.000000pt" height="143.000000pt" viewBox="0 0 143.000000 143.000000"
 preserveAspectRatio="xMidYMid meet">
<metadata>
Created by potrace 1.14, written by Peter Selinger 2001-2017
</metadata>
<g transform="translate(0.000000,143.000000) scale(0.100000,-0.100000)"
fill="#000000" stroke="none">
<path d="M244 1416 c-69 -17 -137 -68 -188 -139 l-41 -58 0 -499 0 -498 40
-58 c23 -33 65 -75 98 -98 l58 -41 504 0 504 0 58 41 c33 23 75 65 98 98 l40
58 0 498 0 499 -41 58 c-52 73 -119 122 -192 139 -78 19 -863 18 -938 0z m436
-358 c211 -65 386 -121 389 -124 3 -2 -31 -40 -74 -84 l-80 -80 135 -135 135
-135 -123 -122 -122 -123 -135 135 -135 135 -80 -80 c-44 -43 -82 -76 -85 -73
-6 5 -255 803 -255 815 0 2 10 1 23 -3 12 -4 195 -61 407 -126z"/>
</g>
</svg>
