<?xml version="1.0" encoding="UTF-8" standalone="no"?>
<!-- Created with Inkscape (http://www.inkscape.org/) -->

<svg
   width="120.0113mm"
   height="130.30797mm"
   viewBox="0 0 120.0113 130.30797"
   version="1.1"
   id="svg3185"
   inkscape:version="1.1 (c68e22c387, 2021-05-23)"
   sodipodi:docname="tda-read.svg"
   xmlns:inkscape="http://www.inkscape.org/namespaces/inkscape"
   xmlns:sodipodi="http://sodipodi.sourceforge.net/DTD/sodipodi-0.dtd"
   xmlns="http://www.w3.org/2000/svg"
   xmlns:svg="http://www.w3.org/2000/svg">
  <sodipodi:namedview
     id="namedview3187"
     pagecolor="#ffffff"
     bordercolor="#999999"
     borderopacity="1"
     inkscape:pageshadow="0"
     inkscape:pageopacity="0"
     inkscape:pagecheckerboard="false"
     inkscape:document-units="mm"
     showgrid="false"
     fit-margin-top="0"
     fit-margin-left="0"
     fit-margin-right="0"
     fit-margin-bottom="0"
     inkscape:zoom="0.92648709"
     inkscape:cx="117.10902"
     inkscape:cy="259.043"
     inkscape:window-width="1920"
     inkscape:window-height="1018"
     inkscape:window-x="-6"
     inkscape:window-y="-6"
     inkscape:window-maximized="1"
     inkscape:current-layer="layer1" />
  <defs
     id="defs3182" />
  <g
     inkscape:label="Layer 1"
     inkscape:groupmode="layer"
     id="layer1"
     transform="translate(-39.600033,-63.869138)">
    <g
       id="g136"
       transform="matrix(2.289869,0,0,-2.289869,152.20814,159.38798)"
       style="fill:#71d0cf;fill-opacity:1">
      <path
         d="m 0,0 v -3.874 c 1.087,0.312 1.499,1.023 1.495,1.927 C 1.491,-1.048 1.08,-0.336 0,0 m -45.867,-3.87 v 3.9 c -1.085,-0.347 -1.56,-1.041 -1.554,-1.968 0.005,-0.914 0.4,-1.672 1.554,-1.932 m 21.481,-8.853 c 0.074,0.474 0.126,0.652 0.126,0.829 0.008,6.051 0.025,12.103 -0.017,18.154 -0.003,0.412 -0.361,0.954 -0.717,1.21 -1.819,1.309 -3.861,2.192 -6.108,2.261 -4.03,0.124 -8.065,0.087 -12.098,0.133 -0.615,0.007 -0.856,-0.253 -0.855,-0.849 0.004,-6.161 0.003,-12.322 -0.005,-18.483 -10e-4,-0.593 0.222,-0.898 0.843,-0.855 0.219,0.016 0.44,0.001 0.66,0.001 1.577,-0.001 3.154,0.008 4.73,-0.002 4.561,-0.029 9.219,0.538 13.441,-2.399 m 1.994,0.112 c 0.321,0.142 0.521,0.211 0.701,0.314 2.519,1.441 5.231,2.031 8.126,1.988 3.521,-0.052 7.044,0.009 10.566,-0.026 0.846,-0.009 1.147,0.237 1.142,1.122 -0.034,5.98 -0.03,11.961 -0.004,17.941 0.004,0.829 -0.2,1.163 -1.103,1.15 -3.888,-0.054 -7.778,-0.017 -11.666,-0.055 -2.526,-0.025 -4.812,-0.846 -6.943,-2.185 -0.673,-0.423 -0.912,-0.914 -0.908,-1.7 0.026,-5.797 0.008,-11.594 0.01,-17.39 0,-0.351 0.047,-0.703 0.079,-1.159 m 14,0.574 c -1.616,0 -3.233,-0.054 -4.846,0.011 -3.358,0.134 -6.398,-0.745 -9.088,-2.753 -0.738,-0.55 -1.342,-0.552 -2.073,-0.003 -2.721,2.042 -5.803,2.848 -9.195,2.764 -3.523,-0.086 -7.049,-0.021 -10.573,-0.015 -1.426,0.003 -1.579,0.158 -1.59,1.579 -0.01,1.248 -0.023,2.497 0.005,3.745 0.014,0.579 -0.124,0.903 -0.739,1.132 -1.76,0.655 -2.754,2 -2.682,3.636 0.079,1.785 0.975,3.067 2.702,3.631 0.647,0.211 0.721,0.597 0.718,1.157 -0.015,2.387 -0.01,4.773 -0.004,7.159 0.004,1.401 0.161,1.565 1.596,1.583 1.321,0.017 2.644,0.018 3.965,-0.011 0.626,-0.015 0.92,0.162 0.944,0.857 0.175,5.095 3.9,10.42 11.995,10.189 0.38,-0.011 0.998,-0.448 1.068,-0.779 0.145,-0.692 -0.465,-0.877 -1.068,-0.921 -0.988,-0.074 -1.985,-0.098 -2.96,-0.256 -3.851,-0.621 -6.822,-3.744 -7.24,-7.552 -0.158,-1.437 -0.095,-1.511 1.321,-1.514 1.065,-0.003 2.13,-0.018 3.194,10e-4 3.217,0.057 6.171,-0.786 8.841,-2.58 0.474,-0.318 0.845,-0.453 1.375,-0.08 2.838,2.001 6.032,2.762 9.473,2.665 1.504,-0.042 3.013,0.053 4.514,-0.025 1.04,-0.053 1.221,0.366 1.138,1.295 -0.342,3.858 -3.34,7.123 -7.268,7.784 -0.902,0.152 -1.843,0.093 -2.73,0.292 -0.381,0.086 -0.668,0.585 -0.997,0.896 0.341,0.261 0.676,0.74 1.025,0.75 7.162,0.202 11.307,-4.426 11.676,-9.902 0.065,-0.956 0.427,-1.176 1.282,-1.128 0.988,0.056 1.981,0.019 2.972,0.004 1.339,-0.022 1.495,-0.181 1.501,-1.558 0.01,-2.349 0.03,-4.7 -0.007,-7.049 C -0.159,2.244 0.031,1.86 0.763,1.599 2.347,1.036 3.228,-0.32 3.233,-1.951 3.238,-3.56 2.342,-4.942 0.765,-5.5 c -0.73,-0.259 -0.946,-0.626 -0.913,-1.358 0.056,-1.245 0.002,-2.496 0.024,-3.744 0.017,-0.997 -0.375,-1.469 -1.44,-1.446 -2.275,0.048 -4.552,0.014 -6.828,0.014 z"
         style="fill:#71d0cf;fill-opacity:1;fill-rule:nonzero;stroke:none"
         id="path138" />
    </g>
    <g
       id="g140"
       transform="matrix(2.289869,0,0,-2.289869,86.709415,81.850519)"
       style="fill:#71d0cf;fill-opacity:1">
      <path
         d="m 0,0 c 0.023,-3.302 2.759,-6.007 6.062,-5.995 3.35,0.012 6.113,2.797 6.074,6.123 C 12.097,3.415 9.349,6.121 6.045,6.126 2.686,6.13 -0.024,3.384 0,0 M 13.816,0.006 C 13.793,-4.292 10.307,-7.754 6.021,-7.735 1.7,-7.717 -1.776,-4.168 -1.729,0.177 -1.683,4.457 1.85,7.904 6.137,7.852 10.446,7.8 13.839,4.334 13.816,0.006"
         style="fill:#71d0cf;fill-opacity:1;fill-rule:nonzero;stroke:none"
         id="path142" />
    </g>
    <g
       id="g144"
       transform="matrix(2.289869,0,0,-2.289869,71.525744,150.2988)"
       style="fill:#71d0cf;fill-opacity:1">
      <path
         d="m 0,0 c -1.431,0.001 -2.863,0 -4.294,0.001 -0.611,0 -1.273,0.025 -1.304,0.826 -0.031,0.799 0.599,0.904 1.229,0.905 C -1.396,1.733 1.577,1.729 4.549,1.733 5.155,1.734 5.716,1.606 5.739,0.897 5.766,0.094 5.152,-0.004 4.514,-0.002 3.009,0.002 1.505,-0.001 0,0"
         style="fill:#71d0cf;fill-opacity:1;fill-rule:nonzero;stroke:none"
         id="path146" />
    </g>
    <g
       id="g148"
       transform="matrix(2.289869,0,0,-2.289869,71.491407,162.11386)"
       style="fill:#71d0cf;fill-opacity:1">
      <path
         d="m 0,0 c -1.468,0 -2.936,0.002 -4.404,-0.001 -0.599,-0.001 -1.174,0.124 -1.192,0.835 -0.019,0.809 0.614,0.872 1.244,0.872 2.936,-0.004 5.871,-0.003 8.807,0 0.617,0 1.292,-0.03 1.302,-0.822 C 5.768,0.023 5.06,-0.009 4.404,-0.007 2.936,-0.003 1.468,-0.006 0,-0.006 Z"
         style="fill:#71d0cf;fill-opacity:1;fill-rule:nonzero;stroke:none"
         id="path150" />
    </g>
  </g>
</svg>
