<?xml version="1.0" encoding="UTF-8" standalone="no"?>
<!-- Created with Inkscape (http://www.inkscape.org/) -->

<svg
   width="133.99945mm"
   height="130.90953mm"
   viewBox="0 0 133.99945 130.90953"
   version="1.1"
   id="svg3185"
   inkscape:version="1.1 (c68e22c387, 2021-05-23)"
   sodipodi:docname="tda-idea.svg"
   xmlns:inkscape="http://www.inkscape.org/namespaces/inkscape"
   xmlns:sodipodi="http://sodipodi.sourceforge.net/DTD/sodipodi-0.dtd"
   xmlns="http://www.w3.org/2000/svg"
   xmlns:svg="http://www.w3.org/2000/svg">
  <sodipodi:namedview
     id="namedview3187"
     pagecolor="#ffffff"
     bordercolor="#999999"
     borderopacity="1"
     inkscape:pageshadow="0"
     inkscape:pageopacity="0"
     inkscape:pagecheckerboard="false"
     inkscape:document-units="mm"
     showgrid="false"
     fit-margin-top="0"
     fit-margin-left="0"
     fit-margin-right="0"
     fit-margin-bottom="0"
     inkscape:zoom="0.92648709"
     inkscape:cx="123.5851"
     inkscape:cy="259.043"
     inkscape:window-width="1920"
     inkscape:window-height="1018"
     inkscape:window-x="-6"
     inkscape:window-y="-6"
     inkscape:window-maximized="1"
     inkscape:current-layer="layer1" />
  <defs
     id="defs3182" />
  <g
     inkscape:label="Layer 1"
     inkscape:groupmode="layer"
     id="layer1"
     transform="translate(-37.992603,-63.911585)">
    <g
       id="g96"
       transform="matrix(2.5109518,0,0,-2.5109518,94.260532,187.30955)"
       style="fill:#71d0cf;fill-opacity:1">
      <path
         d="m 0,0 v -0.008 c -4.22,0 -8.441,0.015 -12.661,-0.029 -0.346,-0.003 -0.687,-0.414 -1.03,-0.635 0.338,-0.193 0.667,-0.402 1.017,-0.569 0.12,-0.058 0.289,-0.013 0.436,-0.013 8.11,0.001 16.221,0.002 24.332,0.005 0.292,0 0.62,-0.053 0.867,0.061 0.215,0.099 0.437,0.384 0.467,0.613 0.021,0.155 -0.251,0.45 -0.446,0.513 -0.303,0.097 -0.652,0.06 -0.981,0.06 C 8,0.001 4,0 0,0 m -6.342,8.554 c 0,-1.908 0.042,-3.817 -0.019,-5.723 -0.028,-0.896 0.305,-1.123 1.146,-1.113 3.265,0.037 6.531,0.014 9.796,0.015 1.521,10e-4 1.53,0.004 1.533,1.579 0.007,3.375 -0.017,6.751 0.03,10.125 0.006,0.436 0.361,0.867 0.555,1.3 0.425,-0.261 0.957,-0.436 1.253,-0.802 0.526,-0.651 0.908,-1.418 1.351,-2.136 1.194,-1.935 2.376,-3.878 3.59,-5.801 0.482,-0.762 1.197,-0.993 1.99,-0.515 0.777,0.468 0.757,1.199 0.41,1.932 -0.172,0.362 -0.42,0.689 -0.638,1.028 -2.149,3.328 -4.324,6.64 -6.436,9.991 -1.118,1.774 -2.634,2.666 -4.742,2.637 -2.641,-0.037 -5.283,0.018 -7.924,-0.017 -2.152,-0.029 -3.906,0.752 -5.389,2.3 -2.613,2.728 -5.269,5.416 -7.907,8.121 -1.121,1.148 -1.828,1.348 -2.501,0.708 -0.67,-0.636 -0.488,-1.403 0.603,-2.533 3.95,-4.09 7.89,-8.189 11.855,-12.263 0.977,-1.004 1.483,-2.141 1.453,-3.55 -0.036,-1.761 -0.008,-3.522 -0.009,-5.283 m 14.174,1.8 C 7.832,7.72 7.81,5.086 7.869,2.453 7.874,2.208 8.381,1.784 8.673,1.767 9.99,1.691 11.313,1.746 12.634,1.728 c 1.667,-0.023 2.571,-0.856 2.58,-2.342 0.01,-1.475 -0.902,-2.359 -2.553,-2.362 -8.513,-0.017 -17.025,-0.019 -25.538,-0.011 -1.648,0.002 -2.568,0.875 -2.581,2.354 -0.012,1.471 0.898,2.323 2.565,2.355 1.32,0.025 2.642,0.028 3.962,0.008 0.601,-0.008 0.864,0.213 0.862,0.832 -0.016,3.889 0.034,7.78 -0.063,11.667 -0.017,0.677 -0.492,1.467 -0.986,1.988 -3.86,4.074 -7.778,8.094 -11.675,12.134 -0.305,0.316 -0.612,0.636 -0.874,0.987 -1.105,1.472 -0.964,3.109 0.344,4.229 1.232,1.053 2.952,0.986 4.178,-0.243 2.281,-2.285 4.553,-4.579 6.777,-6.919 3.42,-3.598 3.401,-3.616 8.377,-3.617 1.945,0 3.89,-0.001 5.835,-0.001 2.35,0 4.202,-0.994 5.48,-2.935 C 11.807,16.085 14.248,12.29 16.669,8.483 17.708,6.849 17.325,4.942 15.865,4.012 14.317,3.026 12.467,3.473 11.394,5.144 10.27,6.896 9.192,8.678 8.094,10.447 8.007,10.416 7.919,10.385 7.832,10.354"
         style="fill:#71d0cf;fill-opacity:1;fill-rule:nonzero;stroke:none"
         id="path98" />
    </g>
    <g
       id="g104"
       transform="matrix(2.5109518,0,0,-2.5109518,104.88634,112.14721)"
       style="fill:#71d0cf;fill-opacity:1">
      <path
         d="M 0,0 C 0.007,2.415 -1.905,4.379 -4.29,4.406 -6.729,4.433 -8.696,2.463 -8.69,0.002 -8.684,-2.397 -6.753,-4.326 -4.348,-4.337 -1.955,-4.348 -0.007,-2.405 0,0 m 1.736,0.003 c -0.026,-3.366 -2.753,-6.084 -6.105,-6.086 -3.318,-0.002 -6.073,2.78 -6.074,6.13 0,3.325 2.784,6.095 6.116,6.084 C -0.988,6.12 1.763,3.34 1.736,0.003"
         style="fill:#71d0cf;fill-opacity:1;fill-rule:nonzero;stroke:none"
         id="path106" />
    </g>
    <g
       id="g108"
       transform="matrix(2.5109518,0,0,-2.5109518,115.00701,97.600282)"
       style="fill:#71d0cf;fill-opacity:1">
      <path
         d="m 0,0 c -0.548,0 -1.117,-0.089 -1.636,0.033 -0.312,0.074 -0.794,0.522 -0.759,0.725 0.06,0.34 0.45,0.856 0.738,0.881 1.123,0.099 2.265,0.085 3.39,-0.007 C 2,1.61 2.418,1.123 2.42,0.848 2.421,0.569 2.034,0.113 1.744,0.046 1.19,-0.083 0.584,0.009 0,0.009 Z"
         style="fill:#71d0cf;fill-opacity:1;fill-rule:nonzero;stroke:none"
         id="path110" />
    </g>
    <g
       id="g112"
       transform="matrix(2.5109518,0,0,-2.5109518,165.61926,97.624632)"
       style="fill:#71d0cf;fill-opacity:1">
      <path
         d="m 0,0 c -0.512,0 -1.053,-0.103 -1.525,0.035 -0.34,0.099 -0.586,0.518 -0.874,0.795 0.275,0.286 0.529,0.788 0.831,0.818 1.049,0.105 2.123,0.117 3.171,0.009 C 1.94,1.622 2.228,1.105 2.538,0.809 2.24,0.538 1.981,0.12 1.636,0.03 1.122,-0.103 0.548,-0.005 0,-0.005 0,-0.003 0,-0.002 0,0"
         style="fill:#71d0cf;fill-opacity:1;fill-rule:nonzero;stroke:none"
         id="path114" />
    </g>
    <g
       id="g116"
       transform="matrix(2.5109518,0,0,-2.5109518,132.40713,77.007692)"
       style="fill:#71d0cf;fill-opacity:1">
      <path
         d="m 0,0 c -0.334,-0.353 -0.519,-0.717 -0.76,-0.76 -0.299,-0.053 -0.797,0.059 -0.944,0.278 -0.63,0.94 -1.202,1.926 -1.703,2.942 -0.117,0.238 0.037,0.741 0.241,0.961 0.155,0.168 0.774,0.216 0.864,0.088 C -1.507,2.389 -0.784,1.217 0,0"
         style="fill:#71d0cf;fill-opacity:1;fill-rule:nonzero;stroke:none"
         id="path118" />
    </g>
    <g
       id="g120"
       transform="matrix(2.5109518,0,0,-2.5109518,150.52093,79.523422)"
       style="fill:#71d0cf;fill-opacity:1">
      <path
         d="M 0,0 C -0.191,0.39 -0.641,0.897 -0.527,1.15 -0.024,2.27 0.608,3.34 1.279,4.373 1.403,4.564 1.967,4.621 2.24,4.514 2.458,4.428 2.737,3.898 2.655,3.74 2.034,2.558 1.337,1.416 0.644,0.273 0.584,0.174 0.387,0.158 0,0"
         style="fill:#71d0cf;fill-opacity:1;fill-rule:nonzero;stroke:none"
         id="path122" />
    </g>
    <g
       id="g124"
       transform="matrix(2.5109518,0,0,-2.5109518,121.75868,87.305092)"
       style="fill:#71d0cf;fill-opacity:1">
      <path
         d="m 0,0 c -1.163,0.725 -2.291,1.391 -3.364,2.137 -0.158,0.11 -0.184,0.697 -0.04,0.882 0.179,0.228 0.695,0.457 0.902,0.354 1.078,-0.532 2.127,-1.135 3.129,-1.8 C 0.826,1.44 0.891,0.896 0.803,0.606 0.734,0.374 0.338,0.24 0,0"
         style="fill:#71d0cf;fill-opacity:1;fill-rule:nonzero;stroke:none"
         id="path126" />
    </g>
    <g
       id="g128"
       transform="matrix(2.5109518,0,0,-2.5109518,168.01172,81.194722)"
       style="fill:#71d0cf;fill-opacity:1">
      <path
         d="m 0,0 c -0.134,-0.155 -0.315,-0.483 -0.592,-0.66 -0.799,-0.511 -1.605,-1.038 -2.475,-1.397 -0.35,-0.144 -0.875,0.134 -1.32,0.219 0.148,0.404 0.179,0.966 0.467,1.18 0.788,0.582 1.666,1.053 2.543,1.5 C -0.662,1.205 -0.022,0.863 0,0"
         style="fill:#71d0cf;fill-opacity:1;fill-rule:nonzero;stroke:none"
         id="path130" />
    </g>
    <g
       id="g132"
       transform="matrix(2.5109518,0,0,-2.5109518,142.4552,69.945402)"
       style="fill:#71d0cf;fill-opacity:1">
      <path
         d="m 0,0 c 0,-0.582 0.085,-1.183 -0.035,-1.74 -0.063,-0.295 -0.531,-0.753 -0.73,-0.713 -0.324,0.066 -0.796,0.461 -0.821,0.751 -0.095,1.084 -0.093,2.186 0.006,3.27 0.028,0.3 0.517,0.558 0.795,0.835 C -0.52,2.112 -0.118,1.859 -0.024,1.52 0.108,1.047 0.009,0.51 0.009,0 0.006,0 0.003,0 0,0"
         style="fill:#71d0cf;fill-opacity:1;fill-rule:nonzero;stroke:none"
         id="path134" />
    </g>
    <path
       id="rect2646"
       style="fill:#71d0cf;fill-opacity:1;stroke-width:12.0557;stroke-linecap:round;stroke-linejoin:round;paint-order:markers fill stroke"
       d="m 134.84741,114.22578 h 11.65588 v 2.08028 h -11.65588 z m 5.49882,11.82806 c 5.06457,-0.007 5.02194,-0.007 4.95162,-4.92144 -0.0214,-1.36851 -0.39148,-2.04896 -1.85814,-2.00127 -2.0138,0.0641 -4.03756,-0.0427 -6.04638,0.0726 -0.59788,0.0356 -1.49151,0.45695 -1.69237,0.93661 -1.47641,3.52289 0.12029,5.92332 3.8192,5.91577 0.27616,0 0.55019,0 0.82607,-0.002 m 0.11317,-11.40975 c 1.35343,-0.52955 3.27178,1.12488 4.35907,-1.46389 1.36595,-3.24415 3.04579,-6.47322 5.18507,-9.24534 4.7131,-6.104098 3.44502,-14.859818 -3.06835,-18.799508 -5.07717,-3.07341 -11.42484,-2.24726 -15.43485,2.00881 -4.28113,4.54477 -4.67787,10.87493 -1.12737,15.952028 1.83294,2.62143 4.02753,5.19013 5.02941,8.13299 0.96167,2.82486 2.04896,4.10789 5.05702,3.41491 m -0.23061,15.71601 c -9.06206,0.0641 -9.09971,0.0641 -9.0269,-8.87871 0.0142,-1.80789 0.45482,-3.61072 0.65269,-5.42117 0.38649,-3.52537 -1.43883,-6.17442 -3.58566,-8.63514 -3.87692,-4.4469 -5.52914,-9.498938 -4.21842,-15.329368 1.56431,-6.96535 7.06833,-11.99483 14.09396,-13.02176 6.70426,-0.98181 13.50647,2.42805 16.95647,8.50204 3.39982,5.98111 2.72691,13.383408 -1.68732,18.882368 -1.08978,1.35847 -2.23729,2.70179 -3.09853,4.20084 -1.21028,2.10419 -1.51414,4.25608 -0.99184,6.84484 0.62279,3.09604 0.34876,6.40547 0.20855,9.6119 -0.0876,2.0138 -1.52418,3.11362 -3.5078,3.22159 -1.92839,0.10535 -3.86432,0.0214 -5.79527,0.0214" />
  </g>
</svg>
