<?xml version="1.0" encoding="UTF-8" standalone="no"?>
<!-- Created with Inkscape (http://www.inkscape.org/) -->

<svg
   width="117.69255mm"
   height="100.24551mm"
   viewBox="0 0 117.69255 100.24551"
   version="1.1"
   id="svg3185"
   inkscape:version="1.1 (c68e22c387, 2021-05-23)"
   sodipodi:docname="tda-chat.svg"
   xmlns:inkscape="http://www.inkscape.org/namespaces/inkscape"
   xmlns:sodipodi="http://sodipodi.sourceforge.net/DTD/sodipodi-0.dtd"
   xmlns="http://www.w3.org/2000/svg"
   xmlns:svg="http://www.w3.org/2000/svg">
  <sodipodi:namedview
     id="namedview3187"
     pagecolor="#ffffff"
     bordercolor="#999999"
     borderopacity="1"
     inkscape:pageshadow="0"
     inkscape:pageopacity="0"
     inkscape:pagecheckerboard="false"
     inkscape:document-units="mm"
     showgrid="false"
     fit-margin-top="0"
     fit-margin-left="0"
     fit-margin-right="0"
     fit-margin-bottom="0"
     inkscape:zoom="0.92648709"
     inkscape:cx="112.79164"
     inkscape:cy="181.3301"
     inkscape:window-width="1920"
     inkscape:window-height="1018"
     inkscape:window-x="-6"
     inkscape:window-y="-6"
     inkscape:window-maximized="1"
     inkscape:current-layer="layer1" />
  <defs
     id="defs3182" />
  <g
     inkscape:label="Layer 1"
     inkscape:groupmode="layer"
     id="layer1"
     transform="translate(-40.669223,-84.569472)">
    <g
       id="g32"
       transform="matrix(2.0291477,0,0,-2.0291477,114.87393,118.2766)"
       style="fill:#71d0cf;fill-opacity:1">
      <path
         d="m 0,0 c -0.785,0.986 -1.505,1.901 -2.238,2.807 -0.445,0.55 -1.016,1.029 -1.336,1.642 -0.289,0.553 -0.577,1.328 -0.408,1.86 0.62,1.953 1.43,3.845 2.176,5.783 -3.099,2.121 -10.129,1.688 -12.645,-0.845 0.56,-0.759 1.132,-1.512 1.678,-2.283 0.54,-0.761 1.146,-1.496 1.546,-2.327 0.239,-0.496 0.349,-1.239 0.154,-1.726 -0.775,-1.936 -1.693,-3.815 -2.566,-5.734 C -10.278,-3.294 -3.08,-2.888 0,0 m 18.755,-3.258 c 0.083,0.062 0.167,0.123 0.251,0.185 -0.454,1.34 -0.877,2.692 -1.376,4.015 -0.258,0.686 -0.212,1.213 0.239,1.826 2.497,3.393 1.964,7.072 -1.351,9.65 C 12.31,15.692 5.512,15.702 1.309,12.442 -2.641,9.378 -2.567,4.272 1.464,1.348 4.966,-1.191 8.814,-1.561 12.87,-0.42 c 0.754,0.212 1.319,0.136 1.945,-0.289 1.294,-0.878 2.625,-1.702 3.94,-2.549 m -52.775,-1.82 0.246,-0.183 c 1.226,0.787 2.486,1.526 3.666,2.378 0.794,0.574 1.526,0.644 2.461,0.385 3.586,-0.995 7.057,-0.681 10.307,1.219 4.917,2.873 5.269,8.408 0.774,11.87 -3.841,2.957 -10.5,3.026 -14.52,0.17 -3.356,-2.384 -4.727,-6.428 -1.79,-10.108 0.292,-0.367 0.346,-1.105 0.217,-1.592 -0.373,-1.401 -0.896,-2.762 -1.361,-4.139 m 10.229,19.685 c 2.428,-0.049 4.811,-0.573 6.985,-1.837 0.535,-0.311 0.87,-0.236 1.371,0.075 4.552,2.823 9.313,3.065 14.195,0.966 0.748,-0.321 1.223,-0.258 1.864,0.218 5.107,3.791 13.063,3.35 17.731,-0.94 3.18,-2.923 3.696,-7.144 1.378,-10.784 -0.247,-0.387 -0.324,-1.04 -0.191,-1.483 0.559,-1.861 1.263,-3.678 1.833,-5.536 0.141,-0.459 -0.023,-1.012 -0.047,-1.522 -0.535,0.096 -1.154,0.049 -1.589,0.311 -1.792,1.075 -3.51,2.274 -5.298,3.356 -0.416,0.252 -1.041,0.406 -1.5,0.301 -3.627,-0.822 -7.131,-0.621 -10.54,0.955 -0.335,0.155 -0.942,0.08 -1.257,-0.133 -5.07,-3.425 -10.305,-3.6 -15.742,-0.949 -0.366,0.179 -1.023,0.147 -1.364,-0.07 -3.582,-2.282 -7.44,-2.798 -11.515,-1.856 -0.906,0.21 -1.593,0.08 -2.344,-0.436 -1.663,-1.143 -3.362,-2.234 -5.087,-3.278 -0.377,-0.229 -0.925,-0.176 -1.394,-0.253 -0.047,0.503 -0.251,1.054 -0.115,1.5 0.579,1.893 1.289,3.746 1.879,5.635 0.122,0.39 0.081,0.959 -0.124,1.302 -2.677,4.481 -1.73,8.983 2.597,12.005 2.458,1.717 5.23,2.427 8.274,2.453"
         style="fill:#71d0cf;fill-opacity:1;fill-rule:nonzero;stroke:none"
         id="path34" />
    </g>
    <g
       id="g36"
       transform="matrix(2.0291477,0,0,-2.0291477,80.180216,174.52314)"
       style="fill:#71d0cf;fill-opacity:1">
      <path
         d="m 0,0 c 2.065,3.717 5.066,5.855 9.254,5.872 4.197,0.017 7.215,-2.089 9.312,-5.836 0.321,0.48 0.576,0.855 0.824,1.235 2.359,3.604 6.724,5.359 10.83,4.352 4.274,-1.047 7.379,-4.618 7.777,-8.948 0.023,-0.255 0.116,-0.564 0.01,-0.757 -0.2,-0.365 -0.521,-0.664 -0.791,-0.99 -0.29,0.305 -0.732,0.565 -0.841,0.926 -0.297,0.974 -0.325,2.04 -0.687,2.982 C 34.291,2.474 30.45,4.679 26.711,4.086 22.728,3.454 19.78,0.297 19.47,-3.658 19.442,-4.018 19.455,-4.435 19.274,-4.712 19.136,-4.925 18.573,-5.136 18.46,-5.04 18.143,-4.77 17.782,-4.355 17.754,-3.973 17.608,-2.039 16.96,-0.339 15.729,1.16 13.598,3.754 10.07,4.795 6.765,3.777 3.57,2.792 1.156,-0.208 0.903,-3.509 0.878,-3.837 0.942,-4.221 0.792,-4.478 0.633,-4.75 0.267,-5.06 -0.007,-5.059 c -0.27,0.001 -0.626,0.322 -0.781,0.595 -0.149,0.261 -0.086,0.642 -0.119,0.97 -0.439,4.342 -4.051,7.651 -8.369,7.668 -4.318,0.016 -7.938,-3.277 -8.407,-7.622 -0.073,-0.675 0.129,-1.71 -0.993,-1.59 -1.062,0.113 -0.777,1.085 -0.713,1.774 0.398,4.321 3.565,7.908 7.822,8.904 C -7.356,6.625 -2.896,4.745 -0.641,1.034 -0.458,0.733 -0.27,0.435 0,0"
         style="fill:#71d0cf;fill-opacity:1;fill-rule:nonzero;stroke:none"
         id="path38" />
    </g>
    <g
       id="g40"
       transform="matrix(2.0291477,0,0,-2.0291477,99.093896,144.6922)"
       style="fill:#71d0cf;fill-opacity:1">
      <path
         d="m 0,0 c -1.746,0.01 -3.15,-1.387 -3.148,-3.133 0.002,-1.698 1.366,-3.102 3.044,-3.134 1.742,-0.033 3.19,1.361 3.203,3.084 C 3.112,-1.416 1.743,-0.01 0,0 m 4.834,-3.168 c -0.016,-2.654 -2.196,-4.825 -4.845,-4.827 -2.702,-0.001 -4.898,2.207 -4.88,4.908 0.017,2.689 2.257,4.866 4.963,4.825 2.641,-0.04 4.778,-2.242 4.762,-4.906"
         style="fill:#71d0cf;fill-opacity:1;fill-rule:nonzero;stroke:none"
         id="path42" />
    </g>
    <g
       id="g44"
       transform="matrix(2.0291477,0,0,-2.0291477,136.81857,157.40584)"
       style="fill:#71d0cf;fill-opacity:1">
      <path
         d="M 0,0 C 1.734,0.026 3.136,1.459 3.119,3.187 3.102,4.91 1.651,6.298 -0.098,6.262 -1.78,6.228 -3.158,4.818 -3.153,3.137 -3.148,1.403 -1.712,-0.026 0,0 M -0.014,7.996 C 2.682,8.006 4.865,5.795 4.846,3.073 4.828,0.446 2.638,-1.712 -0.031,-1.736 c -2.664,-0.023 -4.89,2.233 -4.867,4.935 0.023,2.632 2.217,4.788 4.884,4.797"
         style="fill:#71d0cf;fill-opacity:1;fill-rule:nonzero;stroke:none"
         id="path46" />
    </g>
    <g
       id="g48"
       transform="matrix(2.0291477,0,0,-2.0291477,67.687116,150.97773)"
       style="fill:#71d0cf;fill-opacity:1">
      <path
         d="M 0,0 C -0.012,1.725 -1.45,3.119 -3.201,3.102 -4.864,3.085 -6.265,1.672 -6.29,-0.012 -6.315,-1.716 -4.843,-3.189 -3.136,-3.169 -1.387,-3.148 0.012,-1.734 0,0 M 1.729,-0.01 C 1.759,-2.644 -0.4,-4.848 -3.061,-4.9 -5.749,-4.952 -7.975,-2.768 -8,-0.053 -8.024,2.594 -5.869,4.796 -3.216,4.835 -0.52,4.875 1.697,2.702 1.729,-0.01"
         style="fill:#71d0cf;fill-opacity:1;fill-rule:nonzero;stroke:none"
         id="path50" />
    </g>
    <g
       id="g52"
       transform="matrix(2.0291477,0,0,-2.0291477,56.548302,111.17436)"
       style="fill:#71d0cf;fill-opacity:1">
      <path
         d="m 0,0 c -0.883,-0.017 -1.628,0.719 -1.614,1.595 0.013,0.836 0.712,1.534 1.555,1.552 C 0.777,3.166 1.503,2.487 1.542,1.649 1.585,0.734 0.915,0.018 0,0"
         style="fill:#71d0cf;fill-opacity:1;fill-rule:nonzero;stroke:none"
         id="path54" />
    </g>
    <g
       id="g56"
       transform="matrix(2.0291477,0,0,-2.0291477,76.27691,111.19219)"
       style="fill:#71d0cf;fill-opacity:1">
      <path
         d="M 0,0 C -0.859,0.009 -1.574,0.767 -1.548,1.642 -1.523,2.463 -0.829,3.134 0.018,3.156 0.877,3.178 1.627,2.437 1.627,1.568 1.627,0.714 0.878,-0.009 0,0"
         style="fill:#71d0cf;fill-opacity:1;fill-rule:nonzero;stroke:none"
         id="path58" />
    </g>
    <g
       id="g60"
       transform="matrix(2.0291477,0,0,-2.0291477,66.25253,104.79513)"
       style="fill:#71d0cf;fill-opacity:1">
      <path
         d="M 0,0 C 0.901,0.032 1.635,-0.666 1.641,-1.558 1.647,-2.456 1.046,-3.092 0.153,-3.134 -0.764,-3.177 -1.478,-2.512 -1.501,-1.595 -1.522,-0.763 -0.831,-0.029 0,0"
         style="fill:#71d0cf;fill-opacity:1;fill-rule:nonzero;stroke:none"
         id="path62" />
    </g>
    <g
       id="g64"
       transform="matrix(2.0291477,0,0,-2.0291477,126.13187,103.86109)"
       style="fill:#71d0cf;fill-opacity:1">
      <path
         d="M 0,0 C 0.018,-0.873 -0.704,-1.607 -1.587,-1.612 -2.418,-1.616 -3.13,-0.941 -3.173,-0.109 -3.218,0.746 -2.494,1.537 -1.64,1.566 -0.78,1.596 -0.018,0.869 0,0"
         style="fill:#71d0cf;fill-opacity:1;fill-rule:nonzero;stroke:none"
         id="path66" />
    </g>
    <g
       id="g68"
       transform="matrix(2.0291477,0,0,-2.0291477,145.95583,103.87995)"
       style="fill:#71d0cf;fill-opacity:1">
      <path
         d="m 0,0 c 0.011,-0.888 -0.703,-1.619 -1.574,-1.61 -0.823,0.008 -1.524,0.693 -1.554,1.519 -0.034,0.894 0.645,1.642 1.515,1.67 C -0.755,1.606 -0.011,0.878 0,0"
         style="fill:#71d0cf;fill-opacity:1;fill-rule:nonzero;stroke:none"
         id="path70" />
    </g>
    <g
       id="g72"
       transform="matrix(2.0291477,0,0,-2.0291477,132.83088,107.13433)"
       style="fill:#71d0cf;fill-opacity:1">
      <path
         d="M 0,0 C -0.827,-0.013 -1.539,0.688 -1.562,1.537 -1.585,2.416 -0.847,3.185 0.016,3.18 0.832,3.175 1.555,2.463 1.584,1.634 1.615,0.754 0.897,0.014 0,0"
         style="fill:#71d0cf;fill-opacity:1;fill-rule:nonzero;stroke:none"
         id="path74" />
    </g>
    <g
       id="g76"
       transform="matrix(2.0291477,0,0,-2.0291477,99.767732,103.57337)"
       style="fill:#71d0cf;fill-opacity:1">
      <path
         d="M 0,0 C 0.838,-0.021 1.495,-0.726 1.487,-1.594 1.478,-2.517 0.778,-3.2 -0.126,-3.167 c -0.868,0.032 -1.496,0.695 -1.497,1.578 0,0.887 0.74,1.612 1.623,1.589"
         style="fill:#71d0cf;fill-opacity:1;fill-rule:nonzero;stroke:none"
         id="path78" />
    </g>
  </g>
</svg>
