<?xml version="1.0" encoding="UTF-8" standalone="no"?>
<!-- Created with Inkscape (http://www.inkscape.org/) -->

<svg
   version="1.1"
   id="svg26100"
   xml:space="preserve"
   width="800"
   height="800"
   viewBox="0 0 800 800"
   sodipodi:docname="1613743409book-reading-clipart.svg"
   inkscape:version="1.1 (c68e22c387, 2021-05-23)"
   xmlns:inkscape="http://www.inkscape.org/namespaces/inkscape"
   xmlns:sodipodi="http://sodipodi.sourceforge.net/DTD/sodipodi-0.dtd"
   xmlns="http://www.w3.org/2000/svg"
   xmlns:svg="http://www.w3.org/2000/svg"
   xmlns:rdf="http://www.w3.org/1999/02/22-rdf-syntax-ns#"
   xmlns:cc="http://creativecommons.org/ns#"
   xmlns:dc="http://purl.org/dc/elements/1.1/"><metadata
     id="metadata26106"><rdf:RDF><cc:Work
         rdf:about=""><dc:format>image/svg+xml</dc:format><dc:type
           rdf:resource="http://purl.org/dc/dcmitype/StillImage" /></cc:Work></rdf:RDF></metadata><defs
     id="defs26104"><clipPath
       clipPathUnits="userSpaceOnUse"
       id="clipPath26116"><path
         d="M 0,600 H 600 V 0 H 0 Z"
         id="path26114"
         inkscape:connector-curvature="0" /></clipPath><clipPath
       clipPathUnits="userSpaceOnUse"
       id="clipPath26126"><path
         d="M 600,0 H 0 v 600 h 600 z"
         id="path26124"
         inkscape:connector-curvature="0" /></clipPath><clipPath
       clipPathUnits="userSpaceOnUse"
       id="clipPath26134"><path
         d="M 0,600 H 606.237 V 30.417 L 0,30.417 Z"
         id="path26132"
         inkscape:connector-curvature="0" /></clipPath><clipPath
       clipPathUnits="userSpaceOnUse"
       id="clipPath26442"><path
         d="M 0,30.417 H 606.237 V -539.166 H 0 Z"
         id="path26440"
         inkscape:connector-curvature="0" /></clipPath><clipPath
       clipPathUnits="userSpaceOnUse"
       id="clipPath26494"><path
         d="M 117.543,482.457 H 492.456 V 102.544 H 117.543 Z"
         id="path26492"
         inkscape:connector-curvature="0" /></clipPath><clipPath
       clipPathUnits="userSpaceOnUse"
       id="clipPath26498"><path
         d="M 127.543,467.456 H 492.456 V 102.544 H 127.543 Z"
         id="path26496"
         inkscape:connector-curvature="0" /></clipPath><clipPath
       clipPathUnits="userSpaceOnUse"
       id="clipPath26502"><path
         d="M 126.635,468.82 H 491.547 V 103.907 H 126.635 Z"
         id="path26500"
         inkscape:connector-curvature="0" /></clipPath><clipPath
       clipPathUnits="userSpaceOnUse"
       id="clipPath26506"><path
         d="M 125.726,470.184 H 490.638 V 105.271 H 125.726 Z"
         id="path26504"
         inkscape:connector-curvature="0" /></clipPath><clipPath
       clipPathUnits="userSpaceOnUse"
       id="clipPath26510"><path
         d="M 124.816,471.547 H 489.729 V 106.635 H 124.816 Z"
         id="path26508"
         inkscape:connector-curvature="0" /></clipPath><clipPath
       clipPathUnits="userSpaceOnUse"
       id="clipPath26514"><path
         d="M 123.907,472.911 H 488.82 V 107.998 H 123.907 Z"
         id="path26512"
         inkscape:connector-curvature="0" /></clipPath><clipPath
       clipPathUnits="userSpaceOnUse"
       id="clipPath26518"><path
         d="M 122.999,474.274 H 487.911 V 109.362 H 122.999 Z"
         id="path26516"
         inkscape:connector-curvature="0" /></clipPath><clipPath
       clipPathUnits="userSpaceOnUse"
       id="clipPath26522"><path
         d="M 122.089,475.638 H 487.002 V 110.726 H 122.089 Z"
         id="path26520"
         inkscape:connector-curvature="0" /></clipPath><clipPath
       clipPathUnits="userSpaceOnUse"
       id="clipPath26526"><path
         d="M 121.18,477.001 H 486.093 V 112.089 H 121.18 Z"
         id="path26524"
         inkscape:connector-curvature="0" /></clipPath><clipPath
       clipPathUnits="userSpaceOnUse"
       id="clipPath26530"><path
         d="M 120.271,478.365 H 485.184 V 113.453 H 120.271 Z"
         id="path26528"
         inkscape:connector-curvature="0" /></clipPath><clipPath
       clipPathUnits="userSpaceOnUse"
       id="clipPath26534"><path
         d="M 119.362,479.729 H 484.274 V 114.816 H 119.362 Z"
         id="path26532"
         inkscape:connector-curvature="0" /></clipPath><clipPath
       clipPathUnits="userSpaceOnUse"
       id="clipPath26538"><path
         d="M 118.453,481.093 H 483.365 V 116.18 H 118.453 Z"
         id="path26536"
         inkscape:connector-curvature="0" /></clipPath><clipPath
       clipPathUnits="userSpaceOnUse"
       id="clipPath26542"><path
         d="M 117.543,482.457 H 482.456 V 117.544 H 117.543 Z"
         id="path26540"
         inkscape:connector-curvature="0" /></clipPath></defs><sodipodi:namedview
     pagecolor="#ffffff"
     bordercolor="#666666"
     borderopacity="1"
     objecttolerance="10"
     gridtolerance="10"
     guidetolerance="10"
     inkscape:pageopacity="0"
     inkscape:pageshadow="2"
     inkscape:window-width="1920"
     inkscape:window-height="1018"
     id="namedview26102"
     showgrid="false"
     inkscape:zoom="0.68377772"
     inkscape:cx="506.74363"
     inkscape:cy="389.01531"
     inkscape:window-x="-6"
     inkscape:window-y="-6"
     inkscape:window-maximized="1"
     inkscape:current-layer="g26112"
     inkscape:pagecheckerboard="0" /><g
     id="g26108"
     inkscape:groupmode="layer"
     inkscape:label="reading-book-publicdomainvectors.org"
     transform="matrix(1.3333333,0,0,-1.3333333,0,800)"><g
       id="g26112"
       clip-path="url(#clipPath26116)"><g
         id="g26120"
         style="fill:#74c7d3;fill-opacity:0.19139785"><g
           id="g26122"
           clip-path="url(#clipPath26126)"
           style="fill:#74c7d3;fill-opacity:0.19139785"><g
             id="g26128"
             style="fill:#74c7d3;fill-opacity:0.19139785"><g
               id="g26130"
               clip-path="url(#clipPath26134)"
               style="fill:#74c7d3;fill-opacity:0.19139785"><path
                 d="m 604.891,27.845 c -0.007,0 -0.014,-10e-4 -0.021,-10e-4 -0.154,-0.003 -0.309,0.003 -0.466,0.014 -0.021,0.002 -0.042,0.001 -0.063,0.002 -0.177,0.016 -0.354,0.039 -0.531,0.074 -2.549,0.485 -4.293,2.771 -4.178,5.29 l -0.058,0.01 -7.155,-37.593 c -0.531,-2.795 1.303,-5.493 4.098,-6.025 0.177,-0.033 0.355,-0.057 0.531,-0.072 0.021,-0.002 0.043,-0.001 0.064,-0.003 0.157,-0.011 0.312,-0.018 0.466,-0.015 0.006,0 0.013,10e-4 0.02,10e-4 0.343,0.008 0.68,0.05 1.007,0.123 l 27.383,1.63 7.292,38.318 -27.383,-1.63 c -0.327,-0.073 -0.664,-0.115 -1.006,-0.123"
                 style="fill:#74c7d3;fill-opacity:0.19139785;fill-rule:nonzero;stroke:none"
                 id="path26136"
                 inkscape:connector-curvature="0" /><path
                 d="m 338.006,26.43 c 0,0.009 -10e-4,0.018 -10e-4,0.028 10e-4,0.21 0.014,0.422 0.034,0.634 0.002,0.029 0.002,0.058 0.005,0.088 0.025,0.24 0.063,0.481 0.115,0.722 0.737,3.464 3.909,5.777 7.343,5.545 l 0.017,0.078 -51.093,10.877 c -3.799,0.809 -7.534,-1.615 -8.343,-5.413 -0.051,-0.242 -0.089,-0.482 -0.114,-0.722 -0.004,-0.031 -0.003,-0.059 -0.006,-0.088 -0.02,-0.213 -0.033,-0.425 -0.034,-0.635 0,-0.009 0.002,-0.019 0.002,-0.027 0,-0.469 0.047,-0.93 0.137,-1.379 l 1.414,-37.417 52.076,-11.087 -1.414,37.417 c -0.091,0.449 -0.138,0.911 -0.138,1.379"
                 style="fill:#74c7d3;fill-opacity:0.19139785;fill-rule:nonzero;stroke:none"
                 id="path26138"
                 inkscape:connector-curvature="0" /><path
                 d="m 340.856,-8.877 14.636,12.459 0.033,-0.08 3.869,-1.09 -12.167,28.72 c -0.349,0.817 -1.307,1.181 -2.11,0.802 -0.761,-0.36 -1.1,-1.255 -0.771,-2.029 l 10.628,-25.1 -3.044,-2.38 -8.53,21.777 6.674,-23.228 -2.951,-2.306 -7.274,22.864 5.297,-24.41 -4.282,-3.347 z"
                 style="fill:#74c7d3;fill-opacity:0.19139785;fill-rule:nonzero;stroke:none"
                 id="path26140"
                 inkscape:connector-curvature="0" /><path
                 d="m -1.347,27.845 c -0.007,0 -0.013,-10e-4 -0.02,-10e-4 -0.154,-0.003 -0.309,0.003 -0.465,0.014 -0.022,0.002 -0.043,0.001 -0.064,0.002 -0.177,0.016 -0.354,0.039 -0.532,0.074 -2.549,0.485 -4.292,2.771 -4.177,5.29 l -0.058,0.01 -7.154,-37.593 c -0.533,-2.795 1.302,-5.493 4.097,-6.025 0.178,-0.033 0.355,-0.057 0.531,-0.072 0.022,-0.002 0.043,-0.001 0.064,-0.003 0.156,-0.011 0.312,-0.018 0.466,-0.015 0.007,0 0.013,10e-4 0.02,10e-4 0.343,0.008 0.68,0.05 1.008,0.123 l 27.382,1.63 7.292,38.318 -27.382,-1.63 c -0.328,-0.073 -0.664,-0.115 -1.008,-0.123"
                 style="fill:#74c7d3;fill-opacity:0.19139785;fill-rule:nonzero;stroke:none"
                 id="path26142"
                 inkscape:connector-curvature="0" /><path
                 d="m 18.68,35.447 1.375,5.051 -4.106,-1.076 1.038,3.814 -21.506,-7.719 c -0.612,-0.221 -0.918,-0.907 -0.673,-1.51 0.232,-0.571 0.873,-0.857 1.452,-0.648 l 5.508,1.465 16.72,4.122 -1.04,-3.822 -16.583,-4.348 0.28,-1.068 21.991,5.767 -1.141,-4.196 1.065,-0.29 1.643,6.037 z"
                 style="fill:#74c7d3;fill-opacity:0.19139785;fill-rule:nonzero;stroke:none"
                 id="path26144"
                 inkscape:connector-curvature="0" /><path
                 d="m 613.033,473.17 c 0.006,-0.004 0.014,-0.008 0.02,-0.013 0.144,-0.108 0.284,-0.225 0.42,-0.348 0.019,-0.017 0.039,-0.031 0.058,-0.048 0.153,-0.141 0.299,-0.291 0.44,-0.449 2.01,-2.282 1.981,-5.653 0.064,-7.902 l 0.046,-0.052 33.65,29.665 c 2.502,2.206 2.743,6.021 0.538,8.523 -0.141,0.16 -0.288,0.309 -0.44,0.45 -0.018,0.017 -0.039,0.031 -0.058,0.048 -0.136,0.123 -0.275,0.24 -0.419,0.348 -0.007,0.005 -0.014,0.009 -0.021,0.014 -0.322,0.24 -0.665,0.443 -1.02,0.61 l -26.526,18.176 -34.299,-30.234 26.526,-18.177 c 0.356,-0.167 0.698,-0.371 1.021,-0.611"
                 style="fill:#74c7d3;fill-opacity:0.19139785;fill-rule:nonzero;stroke:none"
                 id="path26146"
                 inkscape:connector-curvature="0" /><path
                 d="m 589.025,480.529 -4.905,-3.688 4.577,-1.956 -3.705,-2.785 25.463,-8.313 c 0.726,-0.236 1.502,0.179 1.709,0.914 0.195,0.695 -0.193,1.42 -0.88,1.643 l -6.152,2.603 -18.445,8.204 3.711,2.791 18.48,-7.896 0.509,1.19 -24.508,10.472 4.073,3.063 -0.777,1.034 -5.862,-4.408 z"
                 style="fill:#74c7d3;fill-opacity:0.19139785;fill-rule:nonzero;stroke:none"
                 id="path26150"
                 inkscape:connector-curvature="0" /><path
                 d="m 604.891,597.428 c -0.007,0 -0.014,-10e-4 -0.021,-0.002 -0.154,-0.002 -0.309,0.004 -0.466,0.015 -0.021,0.002 -0.042,10e-4 -0.063,0.003 -0.177,0.014 -0.354,0.038 -0.531,0.073 -2.549,0.484 -4.293,2.771 -4.178,5.289 l -0.058,0.011 -7.155,-37.594 c -0.531,-2.795 1.303,-5.492 4.098,-6.024 0.177,-0.033 0.355,-0.057 0.531,-0.072 0.021,-0.002 0.043,-10e-4 0.064,-0.002 0.157,-0.012 0.312,-0.019 0.466,-0.016 0.006,0 0.013,0.002 0.02,0.002 0.343,0.007 0.68,0.049 1.007,0.122 l 27.383,1.631 7.292,38.317 -27.383,-1.63 c -0.327,-0.074 -0.664,-0.116 -1.006,-0.123"
                 style="fill:#74c7d3;fill-opacity:0.19139785;fill-rule:nonzero;stroke:none"
                 id="path26152"
                 inkscape:connector-curvature="0" /><path
                 d="m 381.918,358.691 c 0.013,0.003 0.024,0.007 0.037,0.01 0.287,0.062 0.58,0.107 0.876,0.143 0.041,0.005 0.08,0.015 0.121,0.019 0.336,0.037 0.676,0.058 1.022,0.06 4.948,0.03 9.052,-3.607 9.764,-8.362 l 0.112,0.001 -0.446,72.985 c -0.033,5.427 -4.459,9.799 -9.884,9.766 -0.345,-0.002 -0.686,-0.023 -1.021,-0.06 -0.042,-0.004 -0.081,-0.014 -0.122,-0.019 -0.296,-0.037 -0.589,-0.082 -0.876,-0.144 -0.013,-0.003 -0.024,-0.007 -0.037,-0.009 -0.64,-0.141 -1.255,-0.343 -1.841,-0.602 l -50.644,-13.126 0.455,-74.39 50.643,13.127 c 0.586,0.258 1.201,0.46 1.841,0.601"
                 style="fill:#74c7d3;fill-opacity:0.19139785;fill-rule:nonzero;stroke:none"
                 id="path26154"
                 inkscape:connector-curvature="0" /><path
                 d="m 334.585,344.234 21.383,-16.246 -0.1,-0.07 -0.329,-5.605 35.555,25.201 c 1.011,0.719 1.221,2.136 0.463,3.119 -0.718,0.93 -2.042,1.126 -2.999,0.445 l -31.077,-22.017 -4.159,3.443 27.169,18.158 -29.704,-16.06 -4.03,3.337 29.028,16.771 -31.73,-14.535 -5.849,4.842 z"
                 style="fill:#74c7d3;fill-opacity:0.19139785;fill-rule:nonzero;stroke:none"
                 id="path26156"
                 inkscape:connector-curvature="0" /><path
                 d="m 293.039,180.388 c 0.003,0.012 0.003,0.026 0.005,0.04 0.053,0.301 0.124,0.602 0.205,0.903 0.011,0.041 0.017,0.083 0.029,0.125 0.096,0.338 0.209,0.676 0.343,1.01 1.911,4.796 7.036,7.338 11.912,6.161 l 0.043,0.108 -70.734,28.185 c -5.259,2.096 -11.22,-0.469 -13.316,-5.728 -0.133,-0.334 -0.246,-0.671 -0.342,-1.009 -0.012,-0.042 -0.018,-0.084 -0.029,-0.125 -0.081,-0.301 -0.153,-0.602 -0.205,-0.904 -0.003,-0.013 -0.003,-0.026 -0.005,-0.04 -0.115,-0.673 -0.161,-1.347 -0.141,-2.014 l -7.165,-54.107 72.094,-28.726 7.165,54.106 c -0.02,0.667 0.026,1.342 0.141,2.015"
                 style="fill:#74c7d3;fill-opacity:0.19139785;fill-rule:nonzero;stroke:none"
                 id="path26162"
                 inkscape:connector-curvature="0" /><path
                 d="m 288.458,128.961 24.089,14.302 0.028,-0.123 5.29,-2.516 -10.423,44.252 c -0.299,1.261 -1.587,2.02 -2.834,1.671 -1.18,-0.33 -1.889,-1.532 -1.606,-2.725 l 9.102,-38.676 -4.959,-2.67 -6.903,33.384 3.88,-35.012 -4.807,-2.589 -4.832,34.638 1.612,-36.373 -6.974,-3.755 z"
                 style="fill:#74c7d3;fill-opacity:0.19139785;fill-rule:nonzero;stroke:none"
                 id="path26164"
                 inkscape:connector-curvature="0" /><path
                 d="m 229.338,302.857 c -0.01,-0.003 -0.02,-0.006 -0.03,-0.009 -0.226,-0.06 -0.457,-0.107 -0.692,-0.147 -0.032,-0.006 -0.063,-0.014 -0.095,-0.02 -0.266,-0.042 -0.537,-0.071 -0.811,-0.086 -3.938,-0.21 -7.343,2.53 -8.089,6.289 l -0.089,-0.005 3.106,-58.088 c 0.231,-4.318 3.92,-7.632 8.238,-7.401 0.274,0.014 0.545,0.044 0.811,0.086 0.032,0.004 0.063,0.014 0.095,0.02 0.235,0.039 0.466,0.087 0.693,0.147 0.009,0.003 0.019,0.006 0.029,0.009 0.503,0.136 0.986,0.321 1.442,0.548 l 39.824,12.36 -3.167,59.205 -39.823,-12.36 c -0.456,-0.227 -0.939,-0.412 -1.442,-0.548"
                 style="fill:#74c7d3;fill-opacity:0.19139785;fill-rule:nonzero;stroke:none"
                 id="path26170"
                 inkscape:connector-curvature="0" /><path
                 d="m 266.475,316.151 -17.636,12.127 0.077,0.06 0.05,4.475 -27.355,-21.403 c -0.778,-0.612 -0.892,-1.747 -0.251,-2.501 0.607,-0.713 1.668,-0.82 2.405,-0.242 l 23.91,18.701 3.441,-2.585 -20.945,-15.48 23.042,13.905 3.335,-2.504 -22.478,-14.446 24.713,12.767 4.839,-3.633 z"
                 style="fill:#74c7d3;fill-opacity:0.19139785;fill-rule:nonzero;stroke:none"
                 id="path26172"
                 inkscape:connector-curvature="0" /><path
                 d="m 115.902,378.083 c 0.01,0.003 0.018,0.007 0.028,0.011 0.213,0.078 0.433,0.144 0.655,0.204 0.031,0.008 0.06,0.02 0.091,0.028 0.253,0.064 0.512,0.116 0.775,0.155 3.786,0.555 7.32,-1.789 8.377,-5.354 l 0.085,0.013 -8.185,55.841 c -0.609,4.152 -4.468,7.024 -8.62,6.416 v 0 c -0.264,-0.039 -0.522,-0.091 -0.775,-0.155 -0.031,-0.008 -0.06,-0.02 -0.091,-0.028 -0.222,-0.06 -0.442,-0.126 -0.655,-0.204 -0.01,-0.004 -0.019,-0.008 -0.028,-0.012 -0.475,-0.176 -0.924,-0.397 -1.345,-0.658 l -37.37,-15.495 8.344,-56.916 37.37,15.495 c 0.421,0.261 0.87,0.482 1.344,0.659"
                 style="fill:#74c7d3;fill-opacity:0.19139785;fill-rule:nonzero;stroke:none"
                 id="path26178"
                 inkscape:connector-curvature="0" /><path
                 d="m 81.21,361.924 18.121,-10.142 -0.069,-0.064 0.35,-4.327 24.518,23.118 c 0.698,0.66 0.706,1.768 0.019,2.439 -0.649,0.635 -1.684,0.643 -2.344,0.018 l -21.43,-20.2 -3.556,2.19 18.854,16.825 -21.02,-15.491 -3.445,2.122 20.426,15.963 -22.736,-14.541 -4.999,3.079 z"
                 style="fill:#74c7d3;fill-opacity:0.19139785;fill-rule:nonzero;stroke:none"
                 id="path26180"
                 inkscape:connector-curvature="0" /><path
                 d="m 568.47,408.484 c -0.002,-0.008 -0.003,-0.017 -0.006,-0.026 -0.052,-0.191 -0.115,-0.381 -0.186,-0.57 -0.009,-0.026 -0.015,-0.053 -0.025,-0.079 -0.082,-0.213 -0.176,-0.424 -0.281,-0.631 -1.516,-2.982 -4.973,-4.32 -8.05,-3.274 l -0.034,-0.067 43.977,-22.356 c 3.27,-1.662 7.268,-0.358 8.93,2.911 0.105,0.208 0.199,0.419 0.281,0.631 0.01,0.027 0.016,0.054 0.026,0.08 0.07,0.189 0.133,0.378 0.185,0.57 0.002,0.009 0.004,0.017 0.006,0.026 0.114,0.427 0.183,0.86 0.21,1.292 l 7.812,34.488 -44.823,22.785 -7.812,-34.488 c -0.028,-0.432 -0.096,-0.864 -0.21,-1.292"
                 style="fill:#74c7d3;fill-opacity:0.19139785;fill-rule:nonzero;stroke:none"
                 id="path26186"
                 inkscape:connector-curvature="0" /><path
                 d="m 574.458,441.396 -16.387,-7.808 -0.01,0.081 -3.265,1.935 4.116,-29.167 c 0.118,-0.831 0.904,-1.396 1.73,-1.245 0.781,0.143 1.309,0.877 1.197,1.663 l -3.592,25.491 3.357,1.431 2.485,-21.947 -0.44,22.819 3.254,1.387 1.076,-22.634 1.105,23.564 4.721,2.013 z"
                 style="fill:#74c7d3;fill-opacity:0.19139785;fill-rule:nonzero;stroke:none"
                 id="path26188"
                 inkscape:connector-curvature="0" /><path
                 d="m 243.023,61.231 c 0.001,-0.009 0.004,-0.018 0.005,-0.028 0.031,-0.212 0.049,-0.428 0.061,-0.645 0.002,-0.031 0.007,-0.059 0.008,-0.089 0.01,-0.247 0.008,-0.496 -0.008,-0.747 -0.224,-3.61 -3.08,-6.42 -6.582,-6.702 l -0.006,-0.082 53.23,-3.314 c 3.957,-0.246 7.365,2.762 7.611,6.72 0.016,0.251 0.018,0.5 0.008,0.747 -0.001,0.03 -0.006,0.058 -0.008,0.089 -0.011,0.217 -0.03,0.433 -0.061,0.646 -0.001,0.009 -0.004,0.018 -0.005,0.028 -0.07,0.472 -0.188,0.931 -0.346,1.372 l -7.045,37.573 -54.253,3.378 7.045,-37.573 c 0.158,-0.441 0.276,-0.9 0.346,-1.373"
                 style="fill:#74c7d3;fill-opacity:0.19139785;fill-rule:nonzero;stroke:none"
                 id="path26192"
                 inkscape:connector-curvature="0" /><path
                 d="m 234.844,96.458 -12.909,-14.778 -0.047,0.076 -4.069,0.519 16.598,-27.175 c 0.475,-0.774 1.497,-0.998 2.251,-0.494 0.714,0.477 0.923,1.433 0.474,2.165 l -14.501,23.751 2.717,2.861 11.883,-20.711 -10.227,22.455 2.633,2.771 10.779,-21.998 -9.013,23.857 3.82,4.022 z"
                 style="fill:#74c7d3;fill-opacity:0.19139785;fill-rule:nonzero;stroke:none"
                 id="path26194"
                 inkscape:connector-curvature="0" /><path
                 d="m 444.777,546.321 c 0.007,-10e-4 0.014,-0.002 0.021,-0.003 0.152,-0.033 0.305,-0.076 0.455,-0.123 0.021,-0.007 0.042,-0.011 0.063,-0.018 0.17,-0.056 0.339,-0.12 0.506,-0.195 2.401,-1.073 3.586,-3.734 2.885,-6.19 l 0.054,-0.024 15.824,35.392 c 1.177,2.631 -0.003,5.718 -2.634,6.894 -0.167,0.075 -0.337,0.14 -0.507,0.196 -0.02,0.006 -0.042,0.01 -0.062,0.017 -0.152,0.047 -0.303,0.09 -0.455,0.123 -0.007,0.002 -0.014,0.002 -0.021,0.004 -0.34,0.072 -0.682,0.11 -1.022,0.114 l -27.374,4.781 -16.129,-36.072 27.375,-4.782 c 0.34,-0.004 0.682,-0.041 1.021,-0.114"
                 style="fill:#74c7d3;fill-opacity:0.19139785;fill-rule:nonzero;stroke:none"
                 id="path26200"
                 inkscape:connector-curvature="0" /><path
                 d="m 418.712,549.732 6.769,-12.555 -0.063,-0.011 -1.391,-2.639 22.732,4.373 c 0.647,0.126 1.06,0.765 0.909,1.407 -0.143,0.607 -0.74,0.993 -1.353,0.874 l -19.866,-3.818 -1.254,2.579 17.128,2.81 -17.892,-1.238 -1.216,2.499 17.723,1.731 -18.539,-0.056 -1.764,3.627 z"
                 style="fill:#74c7d3;fill-opacity:0.19139785;fill-rule:nonzero;stroke:none"
                 id="path26202"
                 inkscape:connector-curvature="0" /><path
                 d="m 188.117,452.605 c 0.001,-0.013 0.003,-0.026 0.004,-0.04 0.022,-0.311 0.025,-0.626 0.019,-0.942 -10e-4,-0.044 0.003,-0.087 0.002,-0.131 -0.013,-0.358 -0.042,-0.719 -0.092,-1.082 v 0 c -0.715,-5.206 -5.157,-8.972 -10.263,-9.003 l -0.016,-0.117 76.788,-10.543 c 5.709,-0.784 10.972,3.209 11.756,8.917 0.05,0.363 0.08,0.724 0.092,1.082 0.001,0.044 -0.003,0.087 -0.002,0.13 0.006,0.317 0.003,0.632 -0.019,0.943 -0.001,0.014 -0.004,0.027 -0.005,0.041 -0.051,0.693 -0.171,1.37 -0.354,2.025 l -6.158,55.216 -78.265,10.746 6.159,-55.216 c 0.182,-0.655 0.302,-1.332 0.354,-2.026"
                 style="fill:#74c7d3;fill-opacity:0.19139785;fill-rule:nonzero;stroke:none"
                 id="path26208"
                 inkscape:connector-curvature="0" /><path
                 d="m 180.061,504.542 -20.303,-20.026 -0.059,0.115 -5.842,1.191 21.126,-41.176 c 0.604,-1.172 2.061,-1.606 3.209,-0.957 1.085,0.615 1.492,1.977 0.92,3.085 l -18.455,35.989 4.246,3.852 14.989,-31.299 -12.401,33.647 4.116,3.734 13.25,-33.044 -10.492,35.546 5.972,5.418 z"
                 style="fill:#74c7d3;fill-opacity:0.19139785;fill-rule:nonzero;stroke:none"
                 id="path26210"
                 inkscape:connector-curvature="0" /><path
                 d="m 456.831,290.932 c 0.01,0.007 0.019,0.016 0.029,0.024 0.23,0.179 0.472,0.345 0.721,0.504 0.034,0.022 0.065,0.048 0.101,0.069 0.284,0.177 0.579,0.341 0.886,0.492 4.409,2.148 9.636,0.658 12.311,-3.287 l 0.1,0.049 -31.693,65.028 c -2.356,4.834 -8.185,6.843 -13.02,4.487 -0.307,-0.15 -0.603,-0.314 -0.887,-0.491 -0.034,-0.021 -0.066,-0.047 -0.1,-0.069 -0.249,-0.159 -0.491,-0.325 -0.721,-0.504 -0.01,-0.007 -0.019,-0.017 -0.03,-0.025 -0.51,-0.399 -0.973,-0.844 -1.386,-1.326 l -39.625,-33.444 32.301,-66.278 39.625,33.444 c 0.413,0.482 0.876,0.927 1.388,1.327"
                 style="fill:#74c7d3;fill-opacity:0.19139785;fill-rule:nonzero;stroke:none"
                 id="path26216"
                 inkscape:connector-curvature="0" /><path
                 d="m 420.734,257.719 26.073,-5.349 -0.059,-0.105 2.109,-5.15 20.965,37.763 c 0.596,1.077 0.176,2.434 -0.924,2.986 -1.04,0.523 -2.307,0.131 -2.87,-0.887 l -18.329,-32.999 -5.192,1.293 16.491,27.875 -19.656,-27.087 -5.032,1.253 18.748,27.432 -22.121,-26.593 -7.302,1.819 z"
                 style="fill:#74c7d3;fill-opacity:0.19139785;fill-rule:nonzero;stroke:none"
                 id="path26218"
                 inkscape:connector-curvature="0" /><path
                 d="m 338.006,596.013 c 0,0.009 -10e-4,0.018 -10e-4,0.028 10e-4,0.21 0.014,0.421 0.034,0.634 0.002,0.029 0.002,0.058 0.005,0.088 0.025,0.24 0.063,0.481 0.115,0.722 0.737,3.464 3.909,5.777 7.343,5.545 l 0.017,0.078 -51.093,10.877 c -3.799,0.809 -7.534,-1.615 -8.343,-5.413 -0.051,-0.241 -0.089,-0.483 -0.114,-0.723 -0.004,-0.029 -0.003,-0.058 -0.006,-0.088 -0.02,-0.212 -0.033,-0.424 -0.034,-0.634 0,-0.009 0.002,-0.019 0.002,-0.028 0,-0.468 0.047,-0.93 0.137,-1.378 l 1.414,-37.417 52.076,-11.087 -1.414,37.417 c -0.091,0.449 -0.138,0.91 -0.138,1.379"
                 style="fill:#74c7d3;fill-opacity:0.19139785;fill-rule:nonzero;stroke:none"
                 id="path26224"
                 inkscape:connector-curvature="0" /><path
                 d="m 340.856,560.707 14.636,12.458 0.033,-0.081 3.869,-1.089 -12.167,28.719 c -0.349,0.818 -1.307,1.182 -2.11,0.802 -0.761,-0.359 -1.1,-1.255 -0.771,-2.028 l 10.628,-25.101 -3.044,-2.38 -8.53,21.778 6.674,-23.228 -2.951,-2.307 -7.274,22.865 5.297,-24.41 -4.282,-3.347 z"
                 style="fill:#74c7d3;fill-opacity:0.19139785;fill-rule:nonzero;stroke:none"
                 id="path26226"
                 inkscape:connector-curvature="0" /><path
                 d="m 50.707,312.798 c 0.007,-10e-4 0.015,0 0.023,-10e-4 0.173,-0.014 0.348,-0.039 0.522,-0.07 0.024,-0.004 0.048,-0.006 0.072,-0.01 0.197,-0.037 0.393,-0.085 0.59,-0.143 2.813,-0.839 4.513,-3.613 4.095,-6.435 l 0.063,-0.018 12.372,41.498 c 0.92,3.085 -0.836,6.331 -3.921,7.251 -0.196,0.059 -0.393,0.106 -0.589,0.143 -0.024,0.005 -0.048,0.006 -0.073,0.01 -0.173,0.031 -0.348,0.056 -0.522,0.07 -0.007,10e-4 -0.015,10e-4 -0.022,10e-4 -0.387,0.031 -0.772,0.023 -1.149,-0.023 l -31.011,1.311 -12.61,-42.297 31.012,-1.31 c 0.377,0.045 0.761,0.054 1.148,0.023"
                 style="fill:#74c7d3;fill-opacity:0.19139785;fill-rule:nonzero;stroke:none"
                 id="path26232"
                 inkscape:connector-curvature="0" /><path
                 d="m 21.344,312.781 9.325,-12.919 -0.068,-0.022 -1.157,-3.124 24.537,8.152 c 0.699,0.233 1.063,1.001 0.802,1.69 -0.246,0.651 -0.964,0.992 -1.625,0.771 l -21.445,-7.12 -1.764,2.674 18.559,5.605 -19.635,-3.976 -1.71,2.591 19.375,4.497 -20.522,-2.761 -2.482,3.76 z"
                 style="fill:#74c7d3;fill-opacity:0.19139785;fill-rule:nonzero;stroke:none"
                 id="path26234"
                 inkscape:connector-curvature="0" /><path
                 d="m 542.734,332.372 c 0.007,-0.007 0.014,-0.013 0.021,-0.019 0.145,-0.15 0.284,-0.31 0.419,-0.475 0.018,-0.022 0.039,-0.042 0.057,-0.065 0.15,-0.189 0.291,-0.386 0.423,-0.594 1.897,-2.973 1.26,-6.83 -1.339,-9.065 l 0.042,-0.067 43.867,27.968 c 3.26,2.079 4.219,6.408 2.139,9.67 -0.132,0.207 -0.273,0.404 -0.423,0.593 -0.018,0.023 -0.039,0.043 -0.057,0.066 -0.134,0.165 -0.273,0.324 -0.419,0.474 -0.007,0.007 -0.014,0.012 -0.02,0.019 -0.328,0.332 -0.683,0.627 -1.061,0.882 l -27.14,25.574 -44.709,-28.506 27.14,-25.573 c 0.378,-0.255 0.733,-0.55 1.06,-0.882"
                 style="fill:#74c7d3;fill-opacity:0.19139785;fill-rule:nonzero;stroke:none"
                 id="path26240"
                 inkscape:connector-curvature="0" /><path
                 d="m 516.049,355.442 -1.687,-19.066 -0.08,0.034 -3.506,-1.929 28.698,-11.887 c 0.818,-0.338 1.753,0.073 2.057,0.904 0.288,0.786 -0.095,1.66 -0.87,1.979 l -25.077,10.393 0.499,3.816 21.266,-9.5 -20.962,11.826 0.483,3.698 21.135,-11.149 -20.811,13.627 0.702,5.367 z"
                 style="fill:#74c7d3;fill-opacity:0.19139785;fill-rule:nonzero;stroke:none"
                 id="path26242"
                 inkscape:connector-curvature="0" /><path
                 d="m 117.129,72.298 c 10e-4,0.008 0,0.015 0,0.021 0.006,0.161 0.022,0.325 0.042,0.487 0.003,0.022 0.004,0.045 0.007,0.067 0.026,0.184 0.061,0.368 0.106,0.552 0.654,2.64 3.149,4.335 5.779,4.07 l 0.014,0.06 -38.949,9.649 c -2.896,0.717 -5.825,-1.049 -6.542,-3.944 -0.045,-0.185 -0.081,-0.368 -0.107,-0.552 -0.003,-0.022 -0.003,-0.045 -0.006,-0.067 -0.021,-0.163 -0.036,-0.326 -0.042,-0.487 0,-0.007 0,-0.014 0,-0.021 -0.012,-0.36 0.013,-0.715 0.071,-1.062 l 0.134,-28.762 39.699,-9.835 -0.135,28.762 c -0.058,0.347 -0.082,0.702 -0.071,1.062"
                 style="fill:#74c7d3;fill-opacity:0.19139785;fill-rule:nonzero;stroke:none"
                 id="path26248"
                 inkscape:connector-curvature="0" /><path
                 d="m 118.421,45.12 11.553,9.193 0.024,-0.063 2.941,-0.935 -8.611,22.359 c -0.246,0.637 -0.973,0.94 -1.599,0.669 -0.593,-0.257 -0.877,-0.936 -0.644,-1.538 l 7.522,-19.54 -2.398,-1.75 -5.995,16.935 4.534,-18.002 -2.324,-1.696 -5.004,17.739 3.447,-18.875 -3.372,-2.461 z"
                 style="fill:#74c7d3;fill-opacity:0.19139785;fill-rule:nonzero;stroke:none"
                 id="path26250"
                 inkscape:connector-curvature="0" /><path
                 d="m 138.175,300.647 c -0.013,0.007 -0.027,0.012 -0.041,0.019 -0.302,0.157 -0.599,0.333 -0.89,0.52 -0.041,0.025 -0.083,0.046 -0.123,0.072 -0.329,0.216 -0.649,0.449 -0.959,0.702 -4.457,3.636 -5.443,9.933 -2.562,14.722 l -0.1,0.081 -53.622,-65.735 c -3.986,-4.887 -3.256,-12.081 1.631,-16.067 0.311,-0.254 0.631,-0.487 0.959,-0.702 0.04,-0.027 0.083,-0.047 0.123,-0.073 0.292,-0.187 0.588,-0.363 0.891,-0.52 0.014,-0.007 0.028,-0.012 0.041,-0.019 0.677,-0.347 1.378,-0.622 2.094,-0.824 l 55.1,-25.719 54.652,67 -55.099,25.719 c -0.716,0.202 -1.418,0.476 -2.095,0.824"
                 style="fill:#74c7d3;fill-opacity:0.19139785;fill-rule:nonzero;stroke:none"
                 id="path26256"
                 inkscape:connector-curvature="0" /><path
                 d="m 185.238,294.332 8.012,8.396 -9.142,2.235 6.051,6.341 -50.071,7.646 c -1.427,0.216 -2.747,-0.799 -2.906,-2.233 -0.15,-1.357 0.798,-2.591 2.148,-2.794 l 12.282,-2.957 36.946,-9.61 -6.062,-6.353 -36.916,9.024 -0.581,-2.377 48.956,-11.967 -6.653,-6.973 1.77,-1.689 9.575,10.034 z"
                 style="fill:#74c7d3;fill-opacity:0.19139785;fill-rule:nonzero;stroke:none"
                 id="path26262"
                 inkscape:connector-curvature="0" /><path
                 d="m 403.393,137.389 c 0.002,-0.014 0.004,-0.028 0.006,-0.041 0.039,-0.31 0.061,-0.623 0.072,-0.941 0.002,-0.043 0.008,-0.086 0.009,-0.13 0.008,-0.358 -0.001,-0.72 -0.03,-1.086 -0.422,-5.242 -4.648,-9.254 -9.748,-9.572 l -0.009,-0.118 77.312,-6.213 c 5.748,-0.462 10.782,3.823 11.244,9.571 0.029,0.366 0.038,0.728 0.03,1.086 -10e-4,0.044 -0.008,0.087 -0.009,0.131 -0.011,0.317 -0.033,0.631 -0.072,0.941 -10e-4,0.013 -0.005,0.026 -0.007,0.04 -0.089,0.69 -0.248,1.36 -0.467,2.004 l -9.26,54.819 -78.799,6.331 9.26,-54.818 c 0.22,-0.645 0.378,-1.315 0.468,-2.004"
                 style="fill:#74c7d3;fill-opacity:0.19139785;fill-rule:nonzero;stroke:none"
                 id="path26264"
                 inkscape:connector-curvature="0" /><path
                 d="m 383.704,176.082 -10.479,1.67 3.066,-8.04 -7.914,1.261 20.249,-41.65 c 0.579,-1.186 2.027,-1.652 3.189,-1.027 1.1,0.592 1.536,1.945 0.988,3.067 l -4.155,10.778 -11.954,32.793 7.929,-1.263 12.38,-32.466 2.091,0.797 -16.418,43.055 8.702,-1.386 0.351,2.209 -12.522,1.995 z"
                 style="fill:#74c7d3;fill-opacity:0.19139785;fill-rule:nonzero;stroke:none"
                 id="path26270"
                 inkscape:connector-curvature="0" /><path
                 d="m 510.477,46.69 c 0.005,-0.011 0.011,-0.022 0.017,-0.034 0.116,-0.262 0.218,-0.533 0.312,-0.809 0.013,-0.038 0.03,-0.075 0.043,-0.113 0.102,-0.313 0.19,-0.634 0.26,-0.964 1.018,-4.728 -1.641,-9.38 -6.048,-11.011 l 0.023,-0.107 69.73,15.004 c 5.184,1.116 8.483,6.223 7.367,11.407 -0.071,0.33 -0.159,0.651 -0.261,0.965 -0.012,0.038 -0.029,0.074 -0.042,0.113 -0.094,0.275 -0.196,0.547 -0.313,0.808 -0.004,0.012 -0.011,0.023 -0.016,0.034 -0.262,0.583 -0.579,1.132 -0.943,1.641 l -22.673,45.824 -71.072,-15.293 22.673,-45.824 c 0.364,-0.509 0.681,-1.058 0.943,-1.641"
                 style="fill:#74c7d3;fill-opacity:0.19139785;fill-rule:nonzero;stroke:none"
                 id="path26272"
                 inkscape:connector-curvature="0" /><path
                 d="m 482.891,75.552 -9.671,-1.306 4.829,-6.268 -7.303,-0.986 28.862,-31.316 c 0.825,-0.891 2.224,-0.918 3.082,-0.06 0.811,0.813 0.836,2.12 0.057,2.963 l -6.513,8.392 -19.213,25.712 7.318,0.988 19.501,-25.312 1.63,1.255 -25.862,33.569 8.031,1.084 -0.276,2.039 -11.556,-1.561 z"
                 style="fill:#74c7d3;fill-opacity:0.19139785;fill-rule:nonzero;stroke:none"
                 id="path26278"
                 inkscape:connector-curvature="0" /><path
                 d="m 443.244,469.616 c -0.012,0.002 -0.023,0.003 -0.035,0.005 -0.262,0.051 -0.523,0.118 -0.784,0.193 -0.036,0.011 -0.072,0.017 -0.109,0.027 -0.294,0.09 -0.586,0.194 -0.875,0.315 -4.151,1.743 -6.286,6.254 -5.182,10.487 l -0.094,0.04 -25.71,-61.231 c -1.911,-4.553 0.23,-9.792 4.782,-11.704 0.289,-0.121 0.581,-0.226 0.875,-0.315 0.036,-0.011 0.073,-0.016 0.109,-0.027 0.26,-0.075 0.521,-0.142 0.784,-0.193 0.012,-0.003 0.023,-0.003 0.035,-0.005 0.585,-0.111 1.172,-0.162 1.755,-0.155 l 47.066,-7.114 26.205,62.408 -47.067,7.114 c -0.583,-0.006 -1.17,0.044 -1.755,0.155"
                 style="fill:#74c7d3;fill-opacity:0.19139785;fill-rule:nonzero;stroke:none"
                 id="path26280"
                 inkscape:connector-curvature="0" /><path
                 d="m 479.98,475.294 4.158,8.078 -7.36,-0.346 3.14,6.1 -39.29,-5.343 c -1.119,-0.154 -1.886,-1.208 -1.688,-2.32 0.188,-1.052 1.173,-1.769 2.232,-1.623 l 9.877,0.5 29.869,0.963 -3.146,-6.113 -29.716,-1.396 0.089,-1.914 39.41,1.852 -3.452,-6.709 1.703,-0.876 4.968,9.654 z"
                 style="fill:#74c7d3;fill-opacity:0.19139785;fill-rule:nonzero;stroke:none"
                 id="path26286"
                 inkscape:connector-curvature="0" /><path
                 d="m 152.074,174.526 c -0.012,0.008 -0.025,0.014 -0.037,0.022 -0.273,0.172 -0.537,0.361 -0.798,0.559 -0.035,0.028 -0.074,0.051 -0.11,0.079 -0.291,0.229 -0.574,0.474 -0.846,0.737 -3.907,3.777 -4.335,9.784 -1.241,14.063 l -0.088,0.085 -55.708,-57.624 c -4.142,-4.284 -4.026,-11.114 0.258,-15.256 0.272,-0.263 0.555,-0.508 0.847,-0.737 0.035,-0.028 0.073,-0.051 0.109,-0.078 0.261,-0.199 0.525,-0.389 0.798,-0.561 0.012,-0.007 0.025,-0.013 0.037,-0.02 0.61,-0.381 1.248,-0.695 1.906,-0.942 l 49.829,-28.595 56.779,58.732 -49.829,28.594 c -0.658,0.248 -1.296,0.562 -1.906,0.942"
                 style="fill:#74c7d3;fill-opacity:0.19139785;fill-rule:nonzero;stroke:none"
                 id="path26288"
                 inkscape:connector-curvature="0" /><path
                 d="m 195.879,164.84 8.211,7.267 -8.429,2.831 6.2,5.489 -46.531,11.179 c -1.327,0.316 -2.65,-0.534 -2.913,-1.872 -0.25,-1.265 0.544,-2.502 1.799,-2.801 l 11.329,-3.759 34.018,-11.986 -6.212,-5.499 -34.037,11.431 -0.737,-2.191 45.138,-15.159 -6.817,-6.036 1.532,-1.73 9.812,8.684 z"
                 style="fill:#74c7d3;fill-opacity:0.19139785;fill-rule:nonzero;stroke:none"
                 id="path26294"
                 inkscape:connector-curvature="0" /><path
                 d="m 170.436,383.994 c -0.009,0 -0.019,-0.001 -0.028,0 -0.208,0.011 -0.418,0.036 -0.628,0.067 -0.029,0.004 -0.058,0.004 -0.087,0.009 -0.237,0.038 -0.475,0.088 -0.713,0.152 -3.403,0.911 -5.537,4.182 -5.13,7.582 l -0.077,0.02 -13.441,-50.207 c -0.999,-3.733 1.217,-7.569 4.949,-8.569 0.238,-0.063 0.475,-0.113 0.712,-0.151 0.029,-0.004 0.058,-0.005 0.088,-0.01 0.21,-0.031 0.419,-0.054 0.628,-0.066 0.009,-0.001 0.019,0 0.028,0 0.465,-0.025 0.926,-0.002 1.377,0.066 l 37.252,-0.524 13.699,51.173 -37.252,0.524 c -0.451,-0.067 -0.912,-0.09 -1.377,-0.066"
                 style="fill:#74c7d3;fill-opacity:0.19139785;fill-rule:nonzero;stroke:none"
                 id="path26296"
                 inkscape:connector-curvature="0" /><path
                 d="m 198.32,392.293 2.368,6.706 -5.671,-1.049 1.788,5.063 -29.9,-8.311 c -0.852,-0.239 -1.334,-1.137 -1.063,-1.978 0.257,-0.797 1.097,-1.247 1.902,-1.022 l 7.607,1.435 23.059,3.916 -1.79,-5.074 -22.896,-4.235 0.272,-1.474 30.363,5.616 -1.964,-5.568 1.413,-0.499 2.829,8.013 z"
                 style="fill:#74c7d3;fill-opacity:0.19139785;fill-rule:nonzero;stroke:none"
                 id="path26302"
                 inkscape:connector-curvature="0" /><path
                 d="m 6.796,473.17 c 0.007,-0.004 0.014,-0.008 0.02,-0.013 0.144,-0.108 0.284,-0.225 0.42,-0.348 0.019,-0.017 0.039,-0.031 0.058,-0.048 0.152,-0.141 0.299,-0.291 0.439,-0.449 2.012,-2.282 1.982,-5.653 0.065,-7.902 l 0.046,-0.052 33.651,29.665 c 2.502,2.206 2.742,6.021 0.537,8.523 -0.14,0.16 -0.287,0.309 -0.44,0.45 -0.019,0.017 -0.039,0.031 -0.058,0.048 -0.136,0.123 -0.275,0.24 -0.42,0.348 -0.006,0.005 -0.013,0.009 -0.019,0.014 -0.324,0.24 -0.666,0.443 -1.022,0.61 L 13.548,522.192 -20.75,491.958 5.775,473.781 c 0.356,-0.167 0.698,-0.371 1.021,-0.611"
                 style="fill:#74c7d3;fill-opacity:0.19139785;fill-rule:nonzero;stroke:none"
                 id="path26304"
                 inkscape:connector-curvature="0" /><path
                 d="m -17.211,480.529 -4.906,-3.688 4.577,-1.956 -3.705,-2.785 25.463,-8.313 c 0.725,-0.236 1.502,0.179 1.709,0.914 0.195,0.695 -0.193,1.42 -0.88,1.643 l -6.152,2.603 -18.445,8.204 3.711,2.791 18.48,-7.896 0.509,1.19 -24.507,10.472 4.072,3.063 -0.778,1.034 -5.861,-4.408 z"
                 style="fill:#74c7d3;fill-opacity:0.19139785;fill-rule:nonzero;stroke:none"
                 id="path26310"
                 inkscape:connector-curvature="0" /><path
                 d="m -1.347,597.428 c -0.007,0 -0.013,-10e-4 -0.02,-0.002 -0.154,-0.002 -0.309,0.004 -0.465,0.015 -0.022,0.002 -0.043,10e-4 -0.064,0.003 -0.177,0.014 -0.354,0.038 -0.532,0.073 -2.549,0.484 -4.292,2.771 -4.177,5.289 l -0.058,0.011 -7.154,-37.594 c -0.533,-2.795 1.302,-5.492 4.097,-6.024 0.178,-0.033 0.355,-0.057 0.531,-0.072 0.022,-0.002 0.043,-10e-4 0.064,-0.002 0.156,-0.012 0.312,-0.019 0.466,-0.016 0.007,0 0.013,0.002 0.02,0.002 0.343,0.007 0.68,0.049 1.008,0.122 l 27.382,1.631 7.292,38.317 -27.382,-1.63 c -0.328,-0.074 -0.664,-0.116 -1.008,-0.123"
                 style="fill:#74c7d3;fill-opacity:0.19139785;fill-rule:nonzero;stroke:none"
                 id="path26312"
                 inkscape:connector-curvature="0" /><path
                 d="m 18.68,605.03 1.375,5.052 -4.106,-1.077 1.038,3.814 -21.506,-7.719 c -0.612,-0.221 -0.918,-0.907 -0.673,-1.511 0.232,-0.57 0.873,-0.856 1.452,-0.647 l 5.508,1.465 16.72,4.122 -1.04,-3.822 -16.583,-4.348 0.28,-1.068 21.991,5.766 -1.141,-4.195 1.065,-0.289 1.643,6.036 z"
                 style="fill:#74c7d3;fill-opacity:0.19139785;fill-rule:nonzero;stroke:none"
                 id="path26318"
                 inkscape:connector-curvature="0" /><path
                 d="m 362.495,93.928 c 0.007,0.004 0.012,0.008 0.019,0.011 0.139,0.079 0.286,0.15 0.434,0.216 0.021,0.009 0.04,0.021 0.061,0.03 0.169,0.073 0.344,0.138 0.524,0.195 2.582,0.81 5.312,-0.432 6.447,-2.804 l 0.059,0.019 -11.956,38.084 c -0.89,2.831 -3.905,4.406 -6.736,3.516 -0.181,-0.055 -0.355,-0.121 -0.525,-0.194 -0.02,-0.01 -0.04,-0.021 -0.06,-0.03 -0.149,-0.067 -0.295,-0.137 -0.435,-0.215 -0.006,-0.004 -0.012,-0.008 -0.018,-0.012 -0.312,-0.176 -0.601,-0.381 -0.866,-0.609 l -24.366,-14.997 12.187,-38.817 24.366,14.997 c 0.265,0.23 0.554,0.434 0.865,0.61"
                 style="fill:#74c7d3;fill-opacity:0.19139785;fill-rule:nonzero;stroke:none"
                 id="path26320"
                 inkscape:connector-curvature="0" /><path
                 d="m 347.835,77.067 1.226,-5.321 3.244,3.015 0.925,-4.02 15.963,17.698 c 0.454,0.505 0.397,1.287 -0.126,1.721 -0.494,0.41 -1.223,0.357 -1.653,-0.121 l -4.341,-4.062 -13.338,-12.032 -0.927,4.027 13.1,12.172 -0.784,0.843 -17.372,-16.141 -1.019,4.419 -1.122,-0.259 1.465,-6.36 z"
                 style="fill:#74c7d3;fill-opacity:0.19139785;fill-rule:nonzero;stroke:none"
                 id="path26326"
                 inkscape:connector-curvature="0" /><path
                 d="m 109.834,478.299 c 0.005,0.006 0.008,0.012 0.013,0.017 0.104,0.122 0.216,0.24 0.331,0.355 0.016,0.016 0.03,0.033 0.046,0.049 0.133,0.128 0.274,0.251 0.422,0.367 2.131,1.667 5.124,1.466 7.022,-0.354 l 0.048,0.038 -24.598,31.437 c -1.828,2.337 -5.205,2.749 -7.543,0.92 v 0 c -0.148,-0.116 -0.288,-0.239 -0.422,-0.367 -0.016,-0.015 -0.029,-0.033 -0.046,-0.049 -0.116,-0.114 -0.227,-0.232 -0.331,-0.355 -0.005,-0.005 -0.008,-0.011 -0.013,-0.017 -0.229,-0.274 -0.428,-0.568 -0.596,-0.875 l -17.526,-22.615 25.07,-32.041 17.527,22.615 c 0.168,0.307 0.366,0.6 0.596,0.875"
                 style="fill:#74c7d3;fill-opacity:0.19139785;fill-rule:nonzero;stroke:none"
                 id="path26328"
                 inkscape:connector-curvature="0" /><path
                 d="m 102.047,457.356 3.021,-4.549 1.975,3.964 2.282,-3.436 8.71,22.185 c 0.248,0.632 -0.081,1.343 -0.723,1.565 -0.607,0.21 -1.271,-0.097 -1.505,-0.695 l -2.633,-5.329 -8.248,-15.958 -2.286,3.442 7.976,16.004 -1.03,0.514 -10.578,-21.224 -2.509,3.778 -0.959,-0.637 3.61,-5.437 z"
                 style="fill:#74c7d3;fill-opacity:0.19139785;fill-rule:nonzero;stroke:none"
                 id="path26334"
                 inkscape:connector-curvature="0" /><path
                 d="m 291.449,384.996 c 0.005,0.006 0.008,0.012 0.011,0.018 0.091,0.132 0.19,0.261 0.294,0.387 0.014,0.017 0.026,0.036 0.041,0.053 0.119,0.141 0.246,0.277 0.382,0.408 1.951,1.876 4.948,1.98 7.022,0.362 l 0.044,0.043 -27.667,28.773 c -2.057,2.139 -5.458,2.206 -7.597,0.148 -0.137,-0.13 -0.264,-0.267 -0.383,-0.408 -0.014,-0.017 -0.027,-0.035 -0.041,-0.053 -0.103,-0.126 -0.202,-0.254 -0.293,-0.387 -0.004,-0.006 -0.008,-0.012 -0.012,-0.018 -0.2,-0.296 -0.368,-0.608 -0.503,-0.931 l -15.137,-24.28 28.199,-29.326 15.137,24.279 c 0.135,0.324 0.303,0.636 0.503,0.932"
                 style="fill:#74c7d3;fill-opacity:0.19139785;fill-rule:nonzero;stroke:none"
                 id="path26336"
                 inkscape:connector-curvature="0" /><path
                 d="m 285.833,363.371 3.467,-4.219 1.562,4.143 2.619,-3.185 6.41,22.955 c 0.181,0.655 -0.218,1.329 -0.879,1.484 -0.625,0.147 -1.255,-0.226 -1.427,-0.844 l -2.077,-5.571 -6.583,-16.713 -2.624,3.192 6.308,16.733 -1.078,0.406 -8.364,-22.189 -2.881,3.502 -0.889,-0.731 4.144,-5.042 z"
                 style="fill:#74c7d3;fill-opacity:0.19139785;fill-rule:nonzero;stroke:none"
                 id="path26342"
                 inkscape:connector-curvature="0" /><path
                 d="m 16.02,201.783 c -0.011,-0.009 -0.021,-0.018 -0.033,-0.028 -0.262,-0.2 -0.537,-0.388 -0.82,-0.567 -0.04,-0.024 -0.075,-0.053 -0.114,-0.078 -0.323,-0.198 -0.658,-0.382 -1.008,-0.55 -5.008,-2.411 -10.923,-0.692 -13.932,3.793 L 0,204.298 35.544,130.429 c 2.643,-5.492 9.237,-7.802 14.729,-5.159 0.349,0.168 0.685,0.352 1.008,0.55 0.039,0.025 0.074,0.054 0.114,0.078 0.283,0.179 0.558,0.367 0.82,0.567 0.012,0.009 0.022,0.019 0.033,0.028 0.582,0.45 1.109,0.951 1.58,1.495 L 98.921,165.662 62.693,240.952 17.6,203.278 c -0.471,-0.544 -0.998,-1.045 -1.58,-1.495"
                 style="fill:#74c7d3;fill-opacity:0.19139785;fill-rule:nonzero;stroke:none"
                 id="path26344"
                 inkscape:connector-curvature="0" /><path
                 d="m 40.838,240.379 -4.063,10.453 -5.703,-7.084 -3.068,7.895 L 0.787,210.96 c -0.773,-1.16 -0.427,-2.731 0.763,-3.458 1.126,-0.689 2.594,-0.364 3.326,0.733 l 7.622,9.537 23.554,28.392 3.075,-7.91 -23.03,-28.605 1.841,-1.484 30.542,37.936 3.374,-8.68 2.204,0.856 -4.855,12.493 z"
                 style="fill:#74c7d3;fill-opacity:0.19139785;fill-rule:nonzero;stroke:none"
                 id="path26350"
                 inkscape:connector-curvature="0" /><path
                 d="m 241.972,581.968 c -0.001,0.009 -0.003,0.017 -0.004,0.027 -0.025,0.201 -0.038,0.405 -0.045,0.611 -0.001,0.029 -0.005,0.057 -0.006,0.085 -0.004,0.233 0.003,0.469 0.022,0.706 0.286,3.409 3.044,6.009 6.361,6.205 l 0.007,0.077 -50.271,4.209 c -3.738,0.312 -7.021,-2.464 -7.334,-6.201 -0.02,-0.238 -0.027,-0.473 -0.022,-0.707 0,-0.028 0.005,-0.056 0.006,-0.084 0.006,-0.207 0.019,-0.411 0.044,-0.612 0.001,-0.009 0.003,-0.018 0.004,-0.027 0.058,-0.448 0.159,-0.884 0.3,-1.304 l 5.904,-35.675 51.238,-4.289 -5.904,35.675 c -0.142,0.419 -0.243,0.856 -0.3,1.304"
                 style="fill:#74c7d3;fill-opacity:0.19139785;fill-rule:nonzero;stroke:none"
                 id="path26352"
                 inkscape:connector-curvature="0" /><path
                 d="m 254.694,556.758 6.812,-1.108 -1.977,5.236 5.144,-0.837 -13.079,27.133 c -0.374,0.773 -1.315,1.079 -2.073,0.675 -0.716,-0.382 -1.002,-1.262 -0.648,-1.993 l 2.678,-7.019 7.704,-21.354 -5.154,0.838 -7.981,21.143 -1.362,-0.514 10.585,-28.039 -5.657,0.92 -0.233,-1.436 8.14,-1.324 z"
                 style="fill:#74c7d3;fill-opacity:0.19139785;fill-rule:nonzero;stroke:none"
                 id="path26358"
                 inkscape:connector-curvature="0" /><path
                 d="m 568.936,539.009 c 0.009,0.003 0.018,0.008 0.028,0.012 0.219,0.078 0.443,0.145 0.672,0.204 0.031,0.008 0.06,0.02 0.093,0.027 0.258,0.064 0.523,0.116 0.792,0.154 3.875,0.542 7.472,-1.877 8.528,-5.529 l 0.088,0.013 -7.997,57.138 c -0.595,4.247 -4.521,7.209 -8.769,6.615 -0.269,-0.038 -0.534,-0.09 -0.793,-0.154 -0.032,-0.008 -0.061,-0.019 -0.093,-0.028 -0.228,-0.059 -0.453,-0.125 -0.672,-0.204 -0.009,-0.003 -0.018,-0.008 -0.028,-0.011 -0.486,-0.177 -0.947,-0.4 -1.379,-0.664 l -38.303,-15.591 8.15,-58.237 38.304,15.591 c 0.431,0.264 0.892,0.487 1.379,0.664"
                 style="fill:#74c7d3;fill-opacity:0.19139785;fill-rule:nonzero;stroke:none"
                 id="path26360"
                 inkscape:connector-curvature="0" /><path
                 d="m 544.027,518.454 0.483,-7.878 5.342,3.527 0.365,-5.95 26.964,21.439 c 0.767,0.613 0.872,1.74 0.229,2.482 -0.607,0.703 -1.66,0.8 -2.387,0.221 l -7.153,-4.76 -21.875,-13.984 -0.366,5.961 21.569,14.24 -0.916,1.39 -28.604,-18.886 -0.403,6.542 -1.66,-0.102 0.577,-9.415 z"
                 style="fill:#74c7d3;fill-opacity:0.19139785;fill-rule:nonzero;stroke:none"
                 id="path26366"
                 inkscape:connector-curvature="0" /><path
                 d="m 313.401,219.807 c 10e-4,-0.01 0.004,-0.02 0.006,-0.031 0.036,-0.232 0.058,-0.468 0.073,-0.707 0.002,-0.033 0.008,-0.065 0.01,-0.098 0.013,-0.27 0.014,-0.543 -0.001,-0.82 -0.211,-3.959 -3.315,-7.069 -7.153,-7.413 l -0.004,-0.09 58.4,-3.11 c 4.342,-0.231 8.05,3.102 8.282,7.443 0.014,0.276 0.013,0.549 10e-4,0.82 -0.002,0.033 -0.008,0.064 -0.01,0.097 -0.016,0.239 -0.037,0.475 -0.073,0.708 -0.002,0.01 -0.005,0.02 -0.006,0.031 -0.082,0.517 -0.215,1.019 -0.394,1.5 l -8.094,41.133 -59.525,3.169 8.095,-41.131 c 0.179,-0.481 0.311,-0.983 0.393,-1.501"
                 style="fill:#74c7d3;fill-opacity:0.19139785;fill-rule:nonzero;stroke:none"
                 id="path26368"
                 inkscape:connector-curvature="0" /><path
                 d="m 297.774,248.572 -7.933,1.045 2.474,-5.998 -5.99,0.79 16.11,-30.982 c 0.461,-0.882 1.561,-1.204 2.424,-0.709 0.818,0.468 1.119,1.497 0.683,2.332 l -3.351,8.039 -9.678,24.474 6.003,-0.79 9.992,-24.219 1.559,0.642 -13.25,32.119 6.587,-0.867 0.22,1.673 -9.479,1.249 z"
                 style="fill:#74c7d3;fill-opacity:0.19139785;fill-rule:nonzero;stroke:none"
                 id="path26374"
                 inkscape:connector-curvature="0" /><path
                 d="m 38.169,90.376 c -10e-4,0.007 -0.003,0.014 -0.004,0.02 -0.025,0.163 -0.04,0.328 -0.05,0.493 -0.002,0.023 -0.006,0.046 -0.007,0.068 -0.009,0.189 -0.009,0.378 0.002,0.57 0.151,2.754 2.314,4.915 4.985,5.15 l 0.003,0.061 -40.627,2.233 c -3.021,0.165 -5.604,-2.149 -5.77,-5.169 -0.01,-0.193 -0.01,-0.382 -10e-4,-0.571 10e-4,-0.022 0.005,-0.044 0.007,-0.068 0.009,-0.165 0.025,-0.33 0.049,-0.492 0.001,-0.007 0.003,-0.014 0.005,-0.021 0.056,-0.361 0.148,-0.71 0.272,-1.045 L 2.616,62.979 44.025,60.705 38.441,89.331 c -0.124,0.335 -0.215,0.684 -0.272,1.045"
                 style="fill:#74c7d3;fill-opacity:0.19139785;fill-rule:nonzero;stroke:none"
                 id="path26376"
                 inkscape:connector-curvature="0" /><path
                 d="m 49.008,70.345 5.518,-0.737 -1.715,4.176 4.167,-0.555 -11.172,21.573 c -0.319,0.614 -1.085,0.839 -1.686,0.496 -0.569,-0.325 -0.78,-1.041 -0.477,-1.622 l 2.321,-5.597 6.705,-17.038 -4.175,0.557 -6.923,16.861 -1.087,-0.445 9.182,-22.362 -4.582,0.612 -0.155,-1.164 6.594,-0.88 z"
                 style="fill:#74c7d3;fill-opacity:0.19139785;fill-rule:nonzero;stroke:none"
                 id="path26382"
                 inkscape:connector-curvature="0" /><path
                 d="m 410.069,66.724 c -0.001,-0.008 -0.002,-0.015 -0.003,-0.023 -0.032,-0.164 -0.074,-0.329 -0.121,-0.492 -0.007,-0.023 -0.01,-0.046 -0.017,-0.068 -0.056,-0.185 -0.121,-0.369 -0.198,-0.551 -1.094,-2.61 -3.928,-3.952 -6.589,-3.26 l -0.025,-0.059 38.49,-16.143 c 2.863,-1.2 6.155,0.146 7.355,3.009 0.077,0.181 0.143,0.365 0.198,0.55 0.007,0.022 0.011,0.045 0.017,0.068 0.048,0.164 0.09,0.328 0.122,0.493 10e-4,0.007 10e-4,0.015 0.003,0.022 0.069,0.368 0.101,0.737 0.096,1.103 l 4.46,29.584 -39.231,16.454 -4.46,-29.585 c 0.005,-0.365 -0.026,-0.735 -0.097,-1.102"
                 style="fill:#74c7d3;fill-opacity:0.19139785;fill-rule:nonzero;stroke:none"
                 id="path26384"
                 inkscape:connector-curvature="0" /><path
                 d="m 406.491,89.812 -5.078,2.611 0.22,-4.626 -3.835,1.972 3.368,-24.693 c 0.097,-0.704 0.76,-1.185 1.459,-1.06 0.661,0.118 1.111,0.737 1.019,1.402 l -0.317,6.208 -0.612,18.773 3.843,-1.975 0.884,-18.677 1.204,0.057 -1.174,24.768 4.216,-2.167 0.55,1.071 -6.068,3.12 z"
                 style="fill:#74c7d3;fill-opacity:0.19139785;fill-rule:nonzero;stroke:none"
                 id="path26390"
                 inkscape:connector-curvature="0" /><path
                 d="m 564.746,276.919 c -0.004,0.014 -0.01,0.026 -0.014,0.04 -0.091,0.311 -0.167,0.628 -0.231,0.95 -0.009,0.045 -0.023,0.087 -0.031,0.132 -0.07,0.366 -0.12,0.738 -0.153,1.117 -0.451,5.435 3.199,10.253 8.365,11.438 l -0.011,0.123 -80.168,-6.662 c -5.96,-0.495 -10.391,-5.729 -9.896,-11.689 0.033,-0.379 0.083,-0.751 0.153,-1.117 0.008,-0.045 0.022,-0.087 0.031,-0.132 0.064,-0.321 0.14,-0.64 0.231,-0.95 0.004,-0.014 0.01,-0.026 0.014,-0.04 0.209,-0.691 0.484,-1.35 0.817,-1.972 l 18.708,-54.543 81.71,6.79 -18.708,54.543 c -0.334,0.621 -0.608,1.281 -0.817,1.972"
                 style="fill:#74c7d3;fill-opacity:0.19139785;fill-rule:nonzero;stroke:none"
                 id="path26392"
                 inkscape:connector-curvature="0" /><path
                 d="m 591.412,240.635 11.006,0.056 -4.492,7.712 8.311,0.042 -27.736,39.215 c -0.793,1.116 -2.354,1.35 -3.438,0.514 -1.025,-0.79 -1.244,-2.249 -0.494,-3.305 l 6.067,-10.331 17.757,-31.547 -8.328,-0.043 -18.137,31.141 -2.005,-1.167 24.053,-41.298 -9.14,-0.048 0.013,-2.32 13.151,0.067 z"
                 style="fill:#74c7d3;fill-opacity:0.19139785;fill-rule:nonzero;stroke:none"
                 id="path26398"
                 inkscape:connector-curvature="0" /><path
                 d="m 577.101,167.401 c 10e-4,0.007 0,0.014 10e-4,0.021 0.015,0.152 0.041,0.304 0.071,0.456 0.004,0.021 0.006,0.042 0.01,0.063 0.036,0.172 0.081,0.343 0.135,0.514 0.787,2.451 3.25,3.891 5.716,3.473 l 0.018,0.054 -36.151,11.604 c -2.687,0.862 -5.565,-0.617 -6.427,-3.305 -0.055,-0.171 -0.1,-0.342 -0.136,-0.513 -0.005,-0.022 -0.006,-0.043 -0.011,-0.064 -0.029,-0.152 -0.055,-0.305 -0.07,-0.456 -10e-4,-0.007 -10e-4,-0.014 -0.002,-0.02 -0.034,-0.339 -0.033,-0.676 -10e-4,-1.007 l -1.715,-27.16 36.846,-11.827 1.715,27.161 c -0.034,0.331 -0.034,0.668 10e-4,1.006"
                 style="fill:#74c7d3;fill-opacity:0.19139785;fill-rule:nonzero;stroke:none"
                 id="path26400"
                 inkscape:connector-curvature="0" /><path
                 d="m 582.158,146.761 4.807,-1.967 -0.562,4.174 3.63,-1.486 -4.994,22.113 c -0.143,0.63 -0.781,1.014 -1.405,0.845 -0.59,-0.158 -0.949,-0.754 -0.814,-1.35 l 0.776,-5.601 2.031,-16.965 -3.638,1.489 -2.27,16.855 -1.086,-0.145 3.012,-22.354 -3.993,1.633 -0.414,-1.014 5.744,-2.35 z"
                 style="fill:#74c7d3;fill-opacity:0.19139785;fill-rule:nonzero;stroke:none"
                 id="path26406"
                 inkscape:connector-curvature="0" /><path
                 d="m 361.201,465.18 c 0.008,0.006 0.015,0.011 0.023,0.016 0.17,0.108 0.347,0.208 0.529,0.302 0.024,0.013 0.048,0.028 0.073,0.042 0.207,0.103 0.421,0.198 0.643,0.282 3.177,1.205 6.689,-0.152 8.286,-3.041 l 0.072,0.027 -17.773,46.857 c -1.322,3.483 -5.217,5.236 -8.7,3.915 -0.222,-0.084 -0.436,-0.18 -0.643,-0.284 -0.025,-0.012 -0.048,-0.028 -0.073,-0.041 -0.182,-0.094 -0.36,-0.193 -0.53,-0.302 -0.007,-0.005 -0.014,-0.011 -0.021,-0.015 -0.378,-0.244 -0.726,-0.521 -1.041,-0.828 l -29.442,-20.58 18.116,-47.758 29.441,20.581 c 0.316,0.306 0.663,0.584 1.04,0.827"
                 style="fill:#74c7d3;fill-opacity:0.19139785;fill-rule:nonzero;stroke:none"
                 id="path26408"
                 inkscape:connector-curvature="0" /><path
                 d="m 344.062,442.975 1.925,-6.579 3.846,4.015 1.454,-4.969 18.711,23.35 c 0.532,0.666 0.403,1.641 -0.283,2.146 -0.65,0.479 -1.561,0.358 -2.065,-0.272 l -5.142,-5.409 -15.835,-16.056 -1.458,4.979 15.527,16.214 -1.044,1 -20.592,-21.503 -1.599,5.464 -1.388,-0.406 2.302,-7.863 z"
                 style="fill:#74c7d3;fill-opacity:0.19139785;fill-rule:nonzero;stroke:none"
                 id="path26414"
                 inkscape:connector-curvature="0" /><path
                 d="m 121.239,537.717 c 0.008,-0.003 0.016,-0.005 0.024,-0.009 0.178,-0.075 0.354,-0.161 0.528,-0.254 0.024,-0.013 0.049,-0.022 0.073,-0.036 0.195,-0.106 0.387,-0.224 0.574,-0.354 2.689,-1.856 3.534,-5.378 2.119,-8.221 l 0.06,-0.042 27.389,39.662 c 2.036,2.948 1.297,6.989 -1.652,9.026 -0.187,0.129 -0.379,0.247 -0.574,0.354 -0.024,0.013 -0.05,0.023 -0.073,0.035 -0.174,0.093 -0.35,0.179 -0.529,0.254 -0.008,0.004 -0.016,0.006 -0.024,0.009 -0.399,0.167 -0.808,0.29 -1.223,0.372 l -32.372,12.069 -27.916,-40.424 32.372,-12.069 c 0.415,-0.082 0.824,-0.206 1.224,-0.372"
                 style="fill:#74c7d3;fill-opacity:0.19139785;fill-rule:nonzero;stroke:none"
                 id="path26416"
                 inkscape:connector-curvature="0" /><path
                 d="m 94.297,539.16 -4.157,-5.118 5.279,-0.852 -3.139,-3.865 28.705,-2.061 c 0.818,-0.057 1.519,0.577 1.545,1.397 0.023,0.775 -0.57,1.431 -1.343,1.485 l -7.091,1.117 -21.361,3.768 3.146,3.873 21.317,-3.437 0.222,1.372 -28.27,4.559 3.452,4.251 -1.08,0.876 -4.967,-6.116 z"
                 style="fill:#74c7d3;fill-opacity:0.19139785;fill-rule:nonzero;stroke:none"
                 id="path26422"
                 inkscape:connector-curvature="0" /><path
                 d="m 171.143,40.837 c 0.004,-0.006 0.009,-0.011 0.013,-0.016 0.094,-0.123 0.183,-0.252 0.267,-0.384 0.012,-0.019 0.025,-0.036 0.037,-0.054 0.094,-0.152 0.181,-0.31 0.26,-0.474 1.138,-2.351 0.337,-5.134 -1.769,-6.553 l 0.026,-0.052 34.687,16.783 c 2.579,1.248 3.658,4.351 2.41,6.929 -0.079,0.164 -0.167,0.322 -0.26,0.473 -0.012,0.019 -0.025,0.035 -0.037,0.054 -0.085,0.132 -0.173,0.262 -0.267,0.385 -0.005,0.005 -0.009,0.01 -0.013,0.015 -0.212,0.273 -0.449,0.52 -0.705,0.741 L 188.037,79.842 152.683,62.735 170.438,41.577 c 0.257,-0.221 0.493,-0.468 0.705,-0.74"
                 style="fill:#74c7d3;fill-opacity:0.19139785;fill-rule:nonzero;stroke:none"
                 id="path26424"
                 inkscape:connector-curvature="0" /><path
                 d="m 152.975,52.463 -4.909,-1.92 3.335,-2.674 -3.707,-1.45 19.151,-12.752 c 0.546,-0.362 1.284,-0.198 1.625,0.362 0.322,0.53 0.168,1.22 -0.348,1.563 l -4.491,3.572 -13.37,11.043 3.715,1.454 13.469,-10.796 0.696,0.867 -17.863,14.317 4.076,1.596 -0.405,1.034 -5.866,-2.294 z"
                 style="fill:#74c7d3;fill-opacity:0.19139785;fill-rule:nonzero;stroke:none"
                 id="path26430"
                 inkscape:connector-curvature="0" /><path
                 d="m -37.768,408.484 c -0.002,-0.008 -0.003,-0.017 -0.005,-0.026 -0.052,-0.191 -0.116,-0.381 -0.185,-0.57 -0.01,-0.026 -0.017,-0.053 -0.026,-0.079 -0.082,-0.213 -0.176,-0.424 -0.281,-0.631 -1.516,-2.982 -4.973,-4.32 -8.05,-3.274 l -0.034,-0.067 43.978,-22.356 c 3.269,-1.662 7.267,-0.358 8.929,2.911 0.106,0.208 0.199,0.419 0.281,0.631 0.01,0.027 0.016,0.054 0.026,0.08 0.07,0.189 0.134,0.378 0.185,0.57 0.003,0.009 0.004,0.017 0.006,0.026 0.114,0.427 0.183,0.86 0.21,1.292 l 7.812,34.488 -44.823,22.785 -7.813,-34.488 c -0.026,-0.432 -0.095,-0.864 -0.21,-1.292"
                 style="fill:#74c7d3;fill-opacity:0.19139785;fill-rule:nonzero;stroke:none"
                 id="path26432"
                 inkscape:connector-curvature="0" /></g></g><g
             id="g26436"
             style="fill:#74c7d3;fill-opacity:0.19139785"><g
               id="g26438"
               clip-path="url(#clipPath26442)"
               style="fill:#74c7d3;fill-opacity:0.19139785"><path
                 d="m 604.891,27.845 c -0.007,0 -0.014,-10e-4 -0.021,-10e-4 -0.154,-0.003 -0.309,0.003 -0.466,0.014 -0.021,0.001 -0.042,0 -0.063,0.002 -0.177,0.016 -0.354,0.039 -0.531,0.074 -2.549,0.484 -4.293,2.771 -4.178,5.29 l -0.058,0.01 -7.155,-37.593 c -0.531,-2.795 1.303,-5.493 4.098,-6.025 0.177,-0.034 0.355,-0.057 0.531,-0.072 0.021,-0.002 0.043,-0.001 0.064,-0.003 0.157,-0.011 0.312,-0.018 0.466,-0.015 0.006,0 0.013,10e-4 0.02,10e-4 0.343,0.008 0.68,0.05 1.007,0.123 l 27.383,1.63 7.292,38.318 -27.383,-1.63 c -0.327,-0.073 -0.664,-0.115 -1.006,-0.123"
                 style="fill:#74c7d3;fill-opacity:0.19139785;fill-rule:nonzero;stroke:none"
                 id="path26444"
                 inkscape:connector-curvature="0" /><path
                 d="m 444.777,-23.262 0.021,-0.003 c 0.152,-0.033 0.305,-0.076 0.455,-0.124 0.021,-0.006 0.042,-0.009 0.063,-0.016 0.17,-0.057 0.339,-0.121 0.506,-0.197 2.401,-1.072 3.586,-3.733 2.885,-6.189 l 0.054,-0.024 15.824,35.392 c 1.177,2.631 -0.003,5.718 -2.634,6.894 -0.167,0.075 -0.337,0.139 -0.507,0.196 -0.02,0.007 -0.042,0.011 -0.062,0.017 -0.152,0.047 -0.303,0.09 -0.455,0.124 l -0.021,0.003 c -0.34,0.072 -0.682,0.11 -1.022,0.114 l -27.374,4.781 -16.129,-36.072 27.375,-4.781 c 0.34,-0.004 0.682,-0.042 1.021,-0.115"
                 style="fill:#74c7d3;fill-opacity:0.19139785;fill-rule:nonzero;stroke:none"
                 id="path26446"
                 inkscape:connector-curvature="0" /><path
                 d="m 338.006,26.43 c 0,0.009 -10e-4,0.018 -10e-4,0.028 10e-4,0.21 0.014,0.422 0.034,0.634 0.002,0.029 0.002,0.058 0.005,0.088 0.025,0.24 0.063,0.481 0.115,0.722 0.737,3.464 3.909,5.777 7.343,5.545 l 0.017,0.078 -51.093,10.877 c -3.799,0.809 -7.534,-1.615 -8.343,-5.413 -0.051,-0.242 -0.089,-0.483 -0.114,-0.722 -0.004,-0.031 -0.003,-0.059 -0.006,-0.088 -0.02,-0.213 -0.033,-0.425 -0.034,-0.635 0,-0.009 0.002,-0.019 0.002,-0.027 0,-0.469 0.047,-0.93 0.137,-1.379 l 1.414,-37.417 52.076,-11.087 -1.414,37.417 c -0.091,0.449 -0.138,0.91 -0.138,1.379"
                 style="fill:#74c7d3;fill-opacity:0.19139785;fill-rule:nonzero;stroke:none"
                 id="path26452"
                 inkscape:connector-curvature="0" /><path
                 d="m 340.856,-8.877 14.636,12.459 0.033,-0.08 3.869,-1.09 -12.167,28.719 c -0.349,0.818 -1.307,1.182 -2.11,0.803 -0.761,-0.36 -1.1,-1.256 -0.771,-2.03 l 10.628,-25.099 -3.044,-2.38 -8.53,21.777 6.674,-23.228 -2.951,-2.307 -7.274,22.865 5.297,-24.41 -4.282,-3.347 z"
                 style="fill:#74c7d3;fill-opacity:0.19139785;fill-rule:nonzero;stroke:none"
                 id="path26454"
                 inkscape:connector-curvature="0" /><path
                 d="m -1.347,27.845 c -0.007,0 -0.013,-10e-4 -0.02,-10e-4 -0.154,-0.003 -0.309,0.003 -0.465,0.014 -0.022,0.001 -0.043,0 -0.064,0.002 -0.177,0.016 -0.354,0.039 -0.532,0.074 -2.549,0.484 -4.292,2.771 -4.177,5.29 l -0.058,0.01 -7.154,-37.593 c -0.533,-2.795 1.302,-5.493 4.097,-6.025 0.178,-0.034 0.355,-0.057 0.531,-0.072 0.022,-0.002 0.043,-0.001 0.064,-0.003 0.156,-0.011 0.312,-0.018 0.466,-0.015 0.007,0 0.013,10e-4 0.02,10e-4 0.343,0.008 0.68,0.05 1.008,0.123 l 27.382,1.63 7.292,38.318 -27.382,-1.63 c -0.328,-0.073 -0.664,-0.115 -1.008,-0.123"
                 style="fill:#74c7d3;fill-opacity:0.19139785;fill-rule:nonzero;stroke:none"
                 id="path26460"
                 inkscape:connector-curvature="0" /><path
                 d="m 18.68,35.447 1.375,5.051 -4.106,-1.076 1.038,3.814 -21.506,-7.719 c -0.612,-0.221 -0.918,-0.908 -0.673,-1.51 0.232,-0.571 0.873,-0.857 1.452,-0.648 l 5.508,1.465 16.72,4.122 -1.04,-3.822 -16.583,-4.348 0.28,-1.068 21.991,5.767 -1.141,-4.196 1.065,-0.29 1.643,6.037 z"
                 style="fill:#74c7d3;fill-opacity:0.19139785;fill-rule:nonzero;stroke:none"
                 id="path26466"
                 inkscape:connector-curvature="0" /><path
                 d="m 241.972,12.385 c -0.001,0.009 -0.003,0.017 -0.004,0.026 -0.025,0.202 -0.038,0.406 -0.045,0.612 -0.001,0.029 -0.005,0.056 -0.006,0.085 -0.004,0.233 0.003,0.469 0.022,0.706 0.286,3.409 3.044,6.009 6.361,6.206 l 0.007,0.076 -50.271,4.209 c -3.738,0.312 -7.021,-2.464 -7.334,-6.201 -0.02,-0.238 -0.027,-0.473 -0.022,-0.707 0,-0.028 0.005,-0.056 0.006,-0.084 0.006,-0.207 0.019,-0.411 0.044,-0.612 0.001,-0.01 0.003,-0.017 0.004,-0.026 0.058,-0.449 0.159,-0.886 0.3,-1.305 l 5.904,-35.675 51.238,-4.289 -5.904,35.675 c -0.142,0.419 -0.243,0.856 -0.3,1.304"
                 style="fill:#74c7d3;fill-opacity:0.19139785;fill-rule:nonzero;stroke:none"
                 id="path26468"
                 inkscape:connector-curvature="0" /><path
                 d="m 254.694,-12.824 6.812,-1.109 -1.977,5.236 5.144,-0.837 -13.079,27.133 c -0.374,0.772 -1.315,1.079 -2.073,0.674 -0.716,-0.381 -1.002,-1.261 -0.648,-1.992 l 2.678,-7.019 7.704,-21.354 -5.154,0.838 -7.981,21.143 -1.362,-0.514 10.585,-28.039 -5.657,0.92 -0.233,-1.436 8.14,-1.324 z"
                 style="fill:#74c7d3;fill-opacity:0.19139785;fill-rule:nonzero;stroke:none"
                 id="path26474"
                 inkscape:connector-curvature="0" /><path
                 d="m 568.936,-30.574 c 0.009,0.004 0.018,0.008 0.028,0.011 0.219,0.079 0.443,0.145 0.672,0.205 0.031,0.007 0.06,0.019 0.093,0.028 0.258,0.063 0.523,0.115 0.792,0.153 3.875,0.542 7.472,-1.878 8.528,-5.529 l 0.088,0.013 -7.997,57.137 c -0.595,4.248 -4.521,7.21 -8.769,6.616 -0.269,-0.038 -0.534,-0.089 -0.793,-0.154 -0.032,-0.008 -0.061,-0.019 -0.093,-0.027 -0.228,-0.06 -0.453,-0.126 -0.672,-0.204 -0.009,-0.004 -0.018,-0.009 -0.028,-0.012 -0.486,-0.178 -0.947,-0.4 -1.379,-0.664 l -38.303,-15.592 8.15,-58.236 38.304,15.592 c 0.431,0.263 0.892,0.486 1.379,0.663"
                 style="fill:#74c7d3;fill-opacity:0.19139785;fill-rule:nonzero;stroke:none"
                 id="path26476"
                 inkscape:connector-curvature="0" /><path
                 d="m 121.239,-31.866 c 0.008,-0.003 0.016,-0.005 0.024,-0.009 0.178,-0.075 0.354,-0.161 0.528,-0.254 0.024,-0.013 0.049,-0.022 0.073,-0.035 0.195,-0.107 0.387,-0.225 0.574,-0.355 2.689,-1.856 3.534,-5.378 2.119,-8.221 l 0.06,-0.042 27.389,39.662 c 2.036,2.948 1.297,6.989 -1.652,9.025 -0.187,0.13 -0.379,0.247 -0.574,0.355 -0.024,0.013 -0.05,0.022 -0.073,0.035 -0.174,0.093 -0.35,0.18 -0.529,0.255 -0.008,0.003 -0.016,0.005 -0.024,0.009 -0.399,0.166 -0.808,0.289 -1.223,0.371 l -32.372,12.069 -27.916,-40.425 32.372,-12.068 c 0.415,-0.082 0.824,-0.206 1.224,-0.372"
                 style="fill:#74c7d3;fill-opacity:0.19139785;fill-rule:nonzero;stroke:none"
                 id="path26482"
                 inkscape:connector-curvature="0" /></g></g></g></g><path
         d="m -136.27436,331.94096 c -0.018,-0.003 -0.033,-0.009 -0.05,-0.013 -0.382,-0.079 -0.771,-0.137 -1.163,-0.182 -0.055,-0.007 -0.107,-0.019 -0.161,-0.025 -0.446,-0.046 -0.897,-0.071 -1.354,-0.071 h -10e-4 c -6.562,0 -11.976,4.857 -12.882,11.169 h -0.147 v -96.795 c 0,-7.196 5.833,-13.03 13.029,-13.03 h 10e-4 c 0.457,0 0.908,0.024 1.354,0.07 0.054,0.006 0.106,0.019 0.161,0.024 0.392,0.046 0.781,0.104 1.163,0.184 0.017,0.003 0.032,0.009 0.05,0.013 0.848,0.18 1.666,0.444 2.445,0.781 l 67.268999,16.999 v 98.657 l -67.268999,-16.999 c -0.779,-0.337 -1.597,-0.601 -2.445,-0.782"
         style="fill:#74c7d3;fill-opacity:1;fill-rule:nonzero;stroke:none"
         id="path26680"
         inkscape:connector-curvature="0" /><path
         d="m -90.108361,360.30096 1.029,13.202 -9.695,-4.617 0.776,9.971 -49.785999,-29.353 c -1.417,-0.838 -1.853,-2.687 -0.959,-4.07 0.846,-1.308 2.573,-1.715 3.914,-0.922 l 12.992,6.245 39.597999,18.149 -0.777,-9.989 -39.149999,-18.646 1.2,-2.521 51.917999,24.727 -0.853,-10.964 2.783,-0.216 1.23,15.777 z"
         style="fill:#74c7d3;fill-opacity:1;fill-rule:nonzero;stroke:none"
         id="path26686"
         inkscape:connector-curvature="0" /></g></g></svg>
