<svg xmlns="http://www.w3.org/2000/svg" version="1.1" xmlns:xlink="http://www.w3.org/1999/xlink" xmlns:svgjs="http://svgjs.dev/svgjs" viewBox="0 0 2400 800"><defs><linearGradient x1="50%" y1="0%" x2="50%" y2="100%" id="sssurf-grad"><stop stop-color="hsla(185, 49%, 64%, 1.00)" stop-opacity="1" offset="0%"></stop><stop stop-color="hsla(185, 49%, 64%, 1.00)" stop-opacity="1" offset="100%"></stop></linearGradient></defs><g fill="url(#sssurf-grad)" transform="matrix(1,0,0,1,7.6488037109375,259.1249694824219)"><path d="M-10,10C54.58333333333333,22.708333333333332,172.91666666666666,91.41666666666666,300,71C427.08333333333337,50.583333333333336,475,-81.54166666666667,600,-88C725,-94.45833333333333,775,26.25,900,40C1025,53.75,1075,-32,1200,-22C1325,-12,1375,93.41666666666667,1500,88C1625,82.58333333333333,1675,-40.083333333333336,1800,-48C1925,-55.916666666666664,1975,45,2100,50C2225,55,2285.4166666666665,-96.91666666666667,2400,-24C2514.5833333333335,48.91666666666667,3254.1666666666665,207.5,2650,400C2045.8333333333335,592.5,156.25,795.8333333333334,-500,900" transform="matrix(1,0,0,1,0,45)" opacity="0.05"></path><path d="M-10,10C54.58333333333333,22.708333333333332,172.91666666666666,91.41666666666666,300,71C427.08333333333337,50.583333333333336,475,-81.54166666666667,600,-88C725,-94.45833333333333,775,26.25,900,40C1025,53.75,1075,-32,1200,-22C1325,-12,1375,93.41666666666667,1500,88C1625,82.58333333333333,1675,-40.083333333333336,1800,-48C1925,-55.916666666666664,1975,45,2100,50C2225,55,2285.4166666666665,-96.91666666666667,2400,-24C2514.5833333333335,48.91666666666667,3254.1666666666665,207.5,2650,400C2045.8333333333335,592.5,156.25,795.8333333333334,-500,900" transform="matrix(1,0,0,1,0,90)" opacity="0.29"></path><path d="M-10,10C54.58333333333333,22.708333333333332,172.91666666666666,91.41666666666666,300,71C427.08333333333337,50.583333333333336,475,-81.54166666666667,600,-88C725,-94.45833333333333,775,26.25,900,40C1025,53.75,1075,-32,1200,-22C1325,-12,1375,93.41666666666667,1500,88C1625,82.58333333333333,1675,-40.083333333333336,1800,-48C1925,-55.916666666666664,1975,45,2100,50C2225,55,2285.4166666666665,-96.91666666666667,2400,-24C2514.5833333333335,48.91666666666667,3254.1666666666665,207.5,2650,400C2045.8333333333335,592.5,156.25,795.8333333333334,-500,900" transform="matrix(1,0,0,1,0,135)" opacity="0.53"></path><path d="M-10,10C54.58333333333333,22.708333333333332,172.91666666666666,91.41666666666666,300,71C427.08333333333337,50.583333333333336,475,-81.54166666666667,600,-88C725,-94.45833333333333,775,26.25,900,40C1025,53.75,1075,-32,1200,-22C1325,-12,1375,93.41666666666667,1500,88C1625,82.58333333333333,1675,-40.083333333333336,1800,-48C1925,-55.916666666666664,1975,45,2100,50C2225,55,2285.4166666666665,-96.91666666666667,2400,-24C2514.5833333333335,48.91666666666667,3254.1666666666665,207.5,2650,400C2045.8333333333335,592.5,156.25,795.8333333333334,-500,900" transform="matrix(1,0,0,1,0,180)" opacity="0.76"></path><path d="M-10,10C54.58333333333333,22.708333333333332,172.91666666666666,91.41666666666666,300,71C427.08333333333337,50.583333333333336,475,-81.54166666666667,600,-88C725,-94.45833333333333,775,26.25,900,40C1025,53.75,1075,-32,1200,-22C1325,-12,1375,93.41666666666667,1500,88C1625,82.58333333333333,1675,-40.083333333333336,1800,-48C1925,-55.916666666666664,1975,45,2100,50C2225,55,2285.4166666666665,-96.91666666666667,2400,-24C2514.5833333333335,48.91666666666667,3254.1666666666665,207.5,2650,400C2045.8333333333335,592.5,156.25,795.8333333333334,-500,900" transform="matrix(1,0,0,1,0,225)" opacity="1.00"></path></g></svg>