<svg width="1728" height="1726" viewBox="0 0 1728 1726" fill="none" xmlns="http://www.w3.org/2000/svg">
<g clip-path="url(#clip0_3_13)" filter="url(#filter0_dd_3_13)">
<g opacity="0.5">
<path opacity="0.05" d="M-1923.72 677.371C-1868.12 685.872 -1763.56 726.227 -1656.82 718.174C-1550.09 710.12 -1513.65 635.137 -1411.39 638.716C-1309.13 642.295 -1268.23 738.038 -1165.96 735.354C-1063.7 732.669 -1022.8 632.095 -920.536 625.831C-818.274 619.568 -777.369 705.736 -675.107 705.289C-572.845 704.841 -531.94 614.288 -429.678 623.684C-327.417 633.079 -286.512 742.78 -184.25 750.386C-81.988 757.992 -41.0835 659.296 61.1785 660.191C163.44 661.086 204.345 757.813 306.607 754.681C408.869 751.549 449.774 650.975 552.036 645.159C654.298 639.342 695.202 719.158 797.464 726.764C899.726 734.369 940.631 678.982 1042.89 681.666C1145.15 684.35 1186.06 745.912 1288.32 739.649C1390.58 733.385 1431.49 648.917 1533.75 651.601C1636.01 654.285 1676.92 742.243 1779.18 752.534C1881.44 762.824 1922.35 693.388 2024.61 700.994C2126.87 708.599 2167.77 795.305 2270.04 789.041C2372.3 782.778 2413.2 669.586 2515.46 670.929C2617.73 672.271 2658.63 789.667 2760.89 795.484C2863.15 801.3 2904.06 697.056 3006.32 698.846C3108.58 700.636 3088.77 634.063 3251.75 804.074C3414.73 974.084 5086.07 1143.11 3788.62 1514.9C2491.18 1886.68 -1566.7 2364.95 -2976 2588.65" fill="url(#paint0_linear_3_13)"/>
<path opacity="0.19" d="M-1923.72 737.501C-1868.12 746.002 -1763.56 786.357 -1656.82 778.304C-1550.09 770.25 -1513.65 695.267 -1411.39 698.846C-1309.13 702.425 -1268.23 798.168 -1165.96 795.484C-1063.7 792.799 -1022.8 692.225 -920.536 685.961C-818.274 679.698 -777.369 765.866 -675.107 765.419C-572.845 764.971 -531.94 674.418 -429.678 683.814C-327.417 693.209 -286.512 802.91 -184.25 810.516C-81.988 818.122 -41.0835 719.426 61.1785 720.321C163.44 721.216 204.345 817.943 306.607 814.811C408.869 811.679 449.774 711.105 552.036 705.289C654.298 699.472 695.202 779.288 797.464 786.894C899.726 794.499 940.631 739.112 1042.89 741.796C1145.15 744.48 1186.06 806.042 1288.32 799.779C1390.58 793.515 1431.49 709.047 1533.75 711.731C1636.01 714.415 1676.92 802.373 1779.18 812.664C1881.44 822.954 1922.35 753.518 2024.61 761.124C2126.87 768.729 2167.77 855.435 2270.04 849.171C2372.3 842.908 2413.2 729.716 2515.46 731.059C2617.73 732.401 2658.63 849.797 2760.89 855.614C2863.15 861.43 2904.06 757.186 3006.32 758.976C3108.58 760.766 3088.77 694.193 3251.75 864.204C3414.73 1034.21 5086.07 1203.24 3788.62 1575.03C2491.18 1946.81 -1566.7 2425.08 -2976 2648.78" fill="url(#paint1_linear_3_13)"/>
<path opacity="0.32" d="M-1923.72 797.631C-1868.12 806.132 -1763.56 846.487 -1656.82 838.434C-1550.09 830.38 -1513.65 755.397 -1411.39 758.976C-1309.13 762.555 -1268.23 858.298 -1165.96 855.614C-1063.7 852.929 -1022.8 752.355 -920.536 746.091C-818.274 739.828 -777.369 825.996 -675.107 825.549C-572.845 825.101 -531.94 734.548 -429.678 743.944C-327.417 753.339 -286.512 863.04 -184.25 870.646C-81.988 878.252 -41.0835 779.556 61.1785 780.451C163.44 781.346 204.345 878.073 306.607 874.941C408.869 871.809 449.774 771.235 552.036 765.419C654.298 759.602 695.202 839.418 797.464 847.024C899.726 854.629 940.631 799.242 1042.89 801.926C1145.15 804.61 1186.06 866.172 1288.32 859.909C1390.58 853.645 1431.49 769.177 1533.75 771.861C1636.01 774.545 1676.92 862.503 1779.18 872.794C1881.44 883.084 1922.35 813.648 2024.61 821.254C2126.87 828.859 2167.77 915.565 2270.04 909.301C2372.3 903.038 2413.2 789.846 2515.46 791.189C2617.73 792.531 2658.63 909.927 2760.89 915.744C2863.15 921.56 2904.06 817.316 3006.32 819.106C3108.58 820.896 3088.77 754.323 3251.75 924.334C3414.73 1094.34 5086.07 1263.37 3788.62 1635.16C2491.18 2006.94 -1566.7 2485.21 -2976 2708.91" fill="url(#paint2_linear_3_13)"/>
<path opacity="0.46" d="M-1923.72 857.761C-1868.12 866.262 -1763.56 906.617 -1656.82 898.564C-1550.09 890.51 -1513.65 815.527 -1411.39 819.106C-1309.13 822.685 -1268.23 918.428 -1165.96 915.744C-1063.7 913.059 -1022.8 812.485 -920.536 806.221C-818.274 799.958 -777.369 886.126 -675.107 885.679C-572.845 885.231 -531.94 794.678 -429.678 804.074C-327.417 813.469 -286.512 923.17 -184.25 930.776C-81.988 938.382 -41.0835 839.686 61.1785 840.581C163.44 841.476 204.345 938.203 306.607 935.071C408.869 931.939 449.774 831.365 552.036 825.549C654.298 819.732 695.202 899.548 797.464 907.154C899.726 914.759 940.631 859.372 1042.89 862.056C1145.15 864.74 1186.06 926.302 1288.32 920.039C1390.58 913.775 1431.49 829.307 1533.75 831.991C1636.01 834.675 1676.92 922.633 1779.18 932.924C1881.44 943.214 1922.35 873.778 2024.61 881.384C2126.87 888.989 2167.77 975.695 2270.04 969.431C2372.3 963.168 2413.2 849.976 2515.46 851.319C2617.73 852.661 2658.63 970.057 2760.89 975.874C2863.15 981.69 2904.06 877.447 3006.32 879.236C3108.58 881.026 3088.77 814.453 3251.75 984.464C3414.73 1154.47 5086.07 1323.5 3788.62 1695.29C2491.18 2067.07 -1566.7 2545.34 -2976 2769.04" fill="url(#paint3_linear_3_13)"/>
<path opacity="0.59" d="M-1923.72 917.891C-1868.12 926.392 -1763.56 966.747 -1656.82 958.694C-1550.09 950.64 -1513.65 875.657 -1411.39 879.236C-1309.13 882.815 -1268.23 978.558 -1165.96 975.874C-1063.7 973.189 -1022.8 872.615 -920.536 866.351C-818.274 860.088 -777.369 946.256 -675.107 945.809C-572.845 945.361 -531.94 854.808 -429.678 864.204C-327.417 873.599 -286.512 983.3 -184.25 990.906C-81.988 998.512 -41.0835 899.816 61.1785 900.711C163.44 901.606 204.345 998.333 306.607 995.201C408.869 992.069 449.774 891.495 552.036 885.679C654.298 879.862 695.202 959.678 797.464 967.284C899.726 974.889 940.631 919.502 1042.89 922.186C1145.15 924.87 1186.06 986.432 1288.32 980.169C1390.58 973.905 1431.49 889.437 1533.75 892.121C1636.01 894.805 1676.92 982.763 1779.18 993.054C1881.44 1003.34 1922.35 933.908 2024.61 941.514C2126.87 949.119 2167.77 1035.82 2270.04 1029.56C2372.3 1023.3 2413.2 910.106 2515.46 911.449C2617.73 912.791 2658.63 1030.19 2760.89 1036C2863.15 1041.82 2904.06 937.577 3006.32 939.366C3108.58 941.156 3088.77 874.583 3251.75 1044.59C3414.73 1214.6 5086.07 1383.63 3788.62 1755.42C2491.18 2127.2 -1566.7 2605.47 -2976 2829.17" fill="url(#paint4_linear_3_13)"/>
<path opacity="0.73" d="M-1923.72 978.021C-1868.12 986.522 -1763.56 1026.88 -1656.82 1018.82C-1550.09 1010.77 -1513.65 935.787 -1411.39 939.366C-1309.13 942.945 -1268.23 1038.69 -1165.96 1036C-1063.7 1033.32 -1022.8 932.745 -920.536 926.481C-818.274 920.218 -777.369 1006.39 -675.107 1005.94C-572.845 1005.49 -531.94 914.938 -429.678 924.334C-327.417 933.729 -286.512 1043.43 -184.25 1051.04C-81.988 1058.64 -41.0835 959.946 61.1785 960.841C163.44 961.736 204.345 1058.46 306.607 1055.33C408.869 1052.2 449.774 951.625 552.036 945.809C654.298 939.992 695.202 1019.81 797.464 1027.41C899.726 1035.02 940.631 979.632 1042.89 982.316C1145.15 985 1186.06 1046.56 1288.32 1040.3C1390.58 1034.04 1431.49 949.567 1533.75 952.251C1636.01 954.935 1676.92 1042.89 1779.18 1053.18C1881.44 1063.47 1922.35 994.038 2024.61 1001.64C2126.87 1009.25 2167.77 1095.95 2270.04 1089.69C2372.3 1083.43 2413.2 970.236 2515.46 971.579C2617.73 972.921 2658.63 1090.32 2760.89 1096.13C2863.15 1101.95 2904.06 997.707 3006.32 999.496C3108.58 1001.29 3088.77 934.713 3251.75 1104.72C3414.73 1274.73 5086.07 1443.76 3788.62 1815.55C2491.18 2187.33 -1566.7 2665.6 -2976 2889.3" fill="url(#paint5_linear_3_13)"/>
<path opacity="0.86" d="M-1923.72 1038.15C-1868.12 1046.65 -1763.56 1087.01 -1656.82 1078.95C-1550.09 1070.9 -1513.65 995.917 -1411.39 999.496C-1309.13 1003.08 -1268.23 1098.82 -1165.96 1096.13C-1063.7 1093.45 -1022.8 992.875 -920.536 986.611C-818.274 980.348 -777.369 1066.52 -675.107 1066.07C-572.845 1065.62 -531.94 975.068 -429.678 984.464C-327.417 993.859 -286.512 1103.56 -184.25 1111.17C-81.988 1118.77 -41.0835 1020.08 61.1785 1020.97C163.44 1021.87 204.345 1118.59 306.607 1115.46C408.869 1112.33 449.774 1011.75 552.036 1005.94C654.298 1000.12 695.202 1079.94 797.464 1087.54C899.726 1095.15 940.631 1039.76 1042.89 1042.45C1145.15 1045.13 1186.06 1106.69 1288.32 1100.43C1390.58 1094.17 1431.49 1009.7 1533.75 1012.38C1636.01 1015.07 1676.92 1103.02 1779.18 1113.31C1881.44 1123.6 1922.35 1054.17 2024.61 1061.77C2126.87 1069.38 2167.77 1156.08 2270.04 1149.82C2372.3 1143.56 2413.2 1030.37 2515.46 1031.71C2617.73 1033.05 2658.63 1150.45 2760.89 1156.26C2863.15 1162.08 2904.06 1057.84 3006.32 1059.63C3108.58 1061.42 3088.77 994.843 3251.75 1164.85C3414.73 1334.86 5086.07 1503.89 3788.62 1875.68C2491.18 2247.46 -1566.7 2725.73 -2976 2949.43" fill="url(#paint6_linear_3_13)"/>
<path d="M-1923.72 1098.28C-1868.12 1106.78 -1763.56 1147.14 -1656.82 1139.08C-1550.09 1131.03 -1513.65 1056.05 -1411.39 1059.63C-1309.13 1063.21 -1268.23 1158.95 -1165.96 1156.26C-1063.7 1153.58 -1022.8 1053 -920.536 1046.74C-818.274 1040.48 -777.369 1126.65 -675.107 1126.2C-572.845 1125.75 -531.94 1035.2 -429.678 1044.59C-327.417 1053.99 -286.512 1163.69 -184.25 1171.3C-81.988 1178.9 -41.0835 1080.21 61.1785 1081.1C163.44 1082 204.345 1178.72 306.607 1175.59C408.869 1172.46 449.774 1071.88 552.036 1066.07C654.298 1060.25 695.202 1140.07 797.464 1147.67C899.726 1155.28 940.631 1099.89 1042.89 1102.58C1145.15 1105.26 1186.06 1166.82 1288.32 1160.56C1390.58 1154.3 1431.49 1069.83 1533.75 1072.51C1636.01 1075.2 1676.92 1163.15 1779.18 1173.44C1881.44 1183.73 1922.35 1114.3 2024.61 1121.9C2126.87 1129.51 2167.77 1216.21 2270.04 1209.95C2372.3 1203.69 2413.2 1090.5 2515.46 1091.84C2617.73 1093.18 2658.63 1210.58 2760.89 1216.39C2863.15 1222.21 2904.06 1117.97 3006.32 1119.76C3108.58 1121.55 3088.77 1054.97 3251.75 1224.98C3414.73 1394.99 5086.07 1564.02 3788.62 1935.81C2491.18 2307.59 -1566.7 2785.86 -2976 3009.56" fill="url(#paint7_linear_3_13)"/>
</g>
</g>
<defs>
<filter id="filter0_dd_3_13" x="-2074" y="0" width="5162" height="1726" filterUnits="userSpaceOnUse" color-interpolation-filters="sRGB">
<feFlood flood-opacity="0" result="BackgroundImageFix"/>
<feColorMatrix in="SourceAlpha" type="matrix" values="0 0 0 0 0 0 0 0 0 0 0 0 0 0 0 0 0 0 127 0" result="hardAlpha"/>
<feOffset dy="4"/>
<feGaussianBlur stdDeviation="2"/>
<feComposite in2="hardAlpha" operator="out"/>
<feColorMatrix type="matrix" values="0 0 0 0 0 0 0 0 0 0 0 0 0 0 0 0 0 0 0.25 0"/>
<feBlend mode="normal" in2="BackgroundImageFix" result="effect1_dropShadow_3_13"/>
<feColorMatrix in="SourceAlpha" type="matrix" values="0 0 0 0 0 0 0 0 0 0 0 0 0 0 0 0 0 0 127 0" result="hardAlpha"/>
<feOffset dy="4"/>
<feGaussianBlur stdDeviation="2"/>
<feComposite in2="hardAlpha" operator="out"/>
<feColorMatrix type="matrix" values="0 0 0 0 0 0 0 0 0 0 0 0 0 0 0 0 0 0 0.25 0"/>
<feBlend mode="normal" in2="effect1_dropShadow_3_13" result="effect2_dropShadow_3_13"/>
<feBlend mode="normal" in="SourceGraphic" in2="effect2_dropShadow_3_13" result="shape"/>
</filter>
<linearGradient id="paint0_linear_3_13" x1="359754" y1="623" x2="359754" y2="197188" gradientUnits="userSpaceOnUse">
<stop stop-color="#74C7D3"/>
<stop offset="1" stop-color="#E0EEFA"/>
</linearGradient>
<linearGradient id="paint1_linear_3_13" x1="359754" y1="683.13" x2="359754" y2="197248" gradientUnits="userSpaceOnUse">
<stop stop-color="#74C7D3"/>
<stop offset="1" stop-color="#E0EEFA"/>
</linearGradient>
<linearGradient id="paint2_linear_3_13" x1="359754" y1="743.26" x2="359754" y2="197308" gradientUnits="userSpaceOnUse">
<stop stop-color="#74C7D3"/>
<stop offset="1" stop-color="#E0EEFA"/>
</linearGradient>
<linearGradient id="paint3_linear_3_13" x1="359754" y1="803.39" x2="359754" y2="197368" gradientUnits="userSpaceOnUse">
<stop stop-color="#74C7D3"/>
<stop offset="1" stop-color="#E0EEFA"/>
</linearGradient>
<linearGradient id="paint4_linear_3_13" x1="359754" y1="863.52" x2="359754" y2="197428" gradientUnits="userSpaceOnUse">
<stop stop-color="#74C7D3"/>
<stop offset="1" stop-color="#E0EEFA"/>
</linearGradient>
<linearGradient id="paint5_linear_3_13" x1="359754" y1="923.65" x2="359754" y2="197488" gradientUnits="userSpaceOnUse">
<stop stop-color="#74C7D3"/>
<stop offset="1" stop-color="#E0EEFA"/>
</linearGradient>
<linearGradient id="paint6_linear_3_13" x1="359754" y1="983.78" x2="359754" y2="197548" gradientUnits="userSpaceOnUse">
<stop stop-color="#74C7D3"/>
<stop offset="1" stop-color="#E0EEFA"/>
</linearGradient>
<linearGradient id="paint7_linear_3_13" x1="359754" y1="1043.91" x2="359754" y2="197609" gradientUnits="userSpaceOnUse">
<stop stop-color="#74C7D3"/>
<stop offset="1" stop-color="#E0EEFA"/>
</linearGradient>
<clipPath id="clip0_3_13">
<rect width="5154" height="1718" fill="white" transform="translate(-2070)"/>
</clipPath>
</defs>
</svg>
