<?xml version="1.0" encoding="UTF-8" standalone="no"?>
<svg
   width="5154"
   height="1118"
   viewBox="0 0 5154 1118"
   fill="none"
   version="1.1"
   id="svg96"
   sodipodi:docname="sssurf 1 (1).svg"
   inkscape:version="1.1 (c68e22c387, 2021-05-23)"
   xmlns:inkscape="http://www.inkscape.org/namespaces/inkscape"
   xmlns:sodipodi="http://sodipodi.sourceforge.net/DTD/sodipodi-0.dtd"
   xmlns="http://www.w3.org/2000/svg"
   xmlns:svg="http://www.w3.org/2000/svg">
  <sodipodi:namedview
     id="namedview98"
     pagecolor="#ffffff"
     bordercolor="#999999"
     borderopacity="1"
     inkscape:pageshadow="0"
     inkscape:pageopacity="0"
     inkscape:pagecheckerboard="0"
     showgrid="false"
     fit-margin-top="-600"
     fit-margin-left="0"
     fit-margin-right="0"
     fit-margin-bottom="0"
     inkscape:zoom="0.10651666"
     inkscape:cx="4492.2548"
     inkscape:cy="-901.26742"
     inkscape:window-width="1920"
     inkscape:window-height="1018"
     inkscape:window-x="-6"
     inkscape:window-y="-6"
     inkscape:window-maximized="1"
     inkscape:current-layer="g20" />
  <g
     clip-path="url(#clip0_3_13)"
     filter="url(#filter0_dd_3_13)"
     id="g20"
     transform="translate(2070,-600)">
    <g
       opacity="0.5"
       id="g18"
       transform="translate(-234.70506)">
      <path
         opacity="0.05"
         d="m -1923.72,677.371 c 55.6,8.501 160.16,48.856 266.9,40.803 106.73,-8.054 143.17,-83.037 245.43,-79.458 102.26,3.579 143.16,99.322 245.43,96.638 102.26,-2.685 143.16,-103.259 245.424,-109.523 102.262,-6.263 143.167,79.905 245.429,79.458 102.262,-0.448 143.167,-91.001 245.429,-81.605 102.261,9.395 143.166,119.096 245.428,126.702 102.262,7.606 143.1665,-91.09 245.4285,-90.195 102.2615,0.895 143.1665,97.622 245.4285,94.49 102.262,-3.132 143.167,-103.706 245.429,-109.522 102.262,-5.817 143.166,73.999 245.428,81.605 102.262,7.605 143.167,-47.782 245.426,-45.098 102.26,2.684 143.17,64.246 245.43,57.983 102.26,-6.264 143.17,-90.732 245.43,-88.048 102.26,2.684 143.17,90.642 245.43,100.933 102.26,10.29 143.17,-59.146 245.43,-51.54 102.26,7.605 143.16,94.311 245.43,88.047 102.26,-6.263 143.16,-119.455 245.42,-118.112 102.27,1.342 143.17,118.738 245.43,124.555 102.26,5.816 143.17,-98.428 245.43,-96.638 102.26,1.79 82.45,-64.783 245.43,105.228 162.98,170.01 1834.32,339.036 536.87,710.826 C 2491.18,1886.68 -1566.7,2364.95 -2976,2588.65"
         fill="url(#paint0_linear_3_13)"
         id="path2"
         style="fill:url(#paint0_linear_3_13)" />
      <path
         opacity="0.19"
         d="m -1923.72,737.501 c 55.6,8.501 160.16,48.856 266.9,40.803 106.73,-8.054 143.17,-83.037 245.43,-79.458 102.26,3.579 143.16,99.322 245.43,96.638 102.26,-2.685 143.16,-103.259 245.424,-109.523 102.262,-6.263 143.167,79.905 245.429,79.458 102.262,-0.448 143.167,-91.001 245.429,-81.605 102.261,9.395 143.166,119.096 245.428,126.702 102.262,7.606 143.1665,-91.09 245.4285,-90.195 102.2615,0.895 143.1665,97.622 245.4285,94.49 102.262,-3.132 143.167,-103.706 245.429,-109.522 102.262,-5.817 143.166,73.999 245.428,81.605 102.262,7.605 143.167,-47.782 245.426,-45.098 102.26,2.684 143.17,64.246 245.43,57.983 102.26,-6.264 143.17,-90.732 245.43,-88.048 102.26,2.684 143.17,90.642 245.43,100.933 102.26,10.29 143.17,-59.146 245.43,-51.54 102.26,7.605 143.16,94.311 245.43,88.047 102.26,-6.263 143.16,-119.455 245.42,-118.112 102.27,1.342 143.17,118.738 245.43,124.555 102.26,5.816 143.17,-98.428 245.43,-96.638 102.26,1.79 82.45,-64.783 245.43,105.228 162.98,170.006 1834.32,339.036 536.87,710.826 C 2491.18,1946.81 -1566.7,2425.08 -2976,2648.78"
         fill="url(#paint1_linear_3_13)"
         id="path4"
         style="fill:url(#paint1_linear_3_13)" />
      <path
         opacity="0.32"
         d="m -1923.72,797.631 c 55.6,8.501 160.16,48.856 266.9,40.803 106.73,-8.054 143.17,-83.037 245.43,-79.458 102.26,3.579 143.16,99.322 245.43,96.638 102.26,-2.685 143.16,-103.259 245.424,-109.523 102.262,-6.263 143.167,79.905 245.429,79.458 102.262,-0.448 143.167,-91.001 245.429,-81.605 102.261,9.395 143.166,119.096 245.428,126.702 102.262,7.606 143.1665,-91.09 245.4285,-90.195 102.2615,0.895 143.1665,97.622 245.4285,94.49 102.262,-3.132 143.167,-103.706 245.429,-109.522 102.262,-5.817 143.166,73.999 245.428,81.605 102.262,7.605 143.167,-47.782 245.426,-45.098 102.26,2.684 143.17,64.246 245.43,57.983 102.26,-6.264 143.17,-90.732 245.43,-88.048 102.26,2.684 143.17,90.642 245.43,100.933 102.26,10.29 143.17,-59.146 245.43,-51.54 102.26,7.605 143.16,94.311 245.43,88.047 102.26,-6.263 143.16,-119.455 245.42,-118.112 102.27,1.342 143.17,118.738 245.43,124.555 102.26,5.816 143.17,-98.428 245.43,-96.638 102.26,1.79 82.45,-64.783 245.43,105.228 162.98,170.006 1834.32,339.036 536.87,710.826 C 2491.18,2006.94 -1566.7,2485.21 -2976,2708.91"
         fill="url(#paint2_linear_3_13)"
         id="path6"
         style="fill:url(#paint2_linear_3_13)" />
      <path
         opacity="0.46"
         d="m -1923.72,857.761 c 55.6,8.501 160.16,48.856 266.9,40.803 106.73,-8.054 143.17,-83.037 245.43,-79.458 102.26,3.579 143.16,99.322 245.43,96.638 102.26,-2.685 143.16,-103.259 245.424,-109.523 102.262,-6.263 143.167,79.905 245.429,79.458 102.262,-0.448 143.167,-91.001 245.429,-81.605 102.261,9.395 143.166,119.096 245.428,126.702 102.262,7.606 143.1665,-91.09 245.4285,-90.195 102.2615,0.895 143.1665,97.622 245.4285,94.49 102.262,-3.132 143.167,-103.706 245.429,-109.522 102.262,-5.817 143.166,73.999 245.428,81.605 102.262,7.605 143.167,-47.782 245.426,-45.098 102.26,2.684 143.17,64.246 245.43,57.983 102.26,-6.264 143.17,-90.732 245.43,-88.048 102.26,2.684 143.17,90.642 245.43,100.933 102.26,10.29 143.17,-59.146 245.43,-51.54 102.26,7.605 143.16,94.311 245.43,88.047 102.26,-6.263 143.16,-119.455 245.42,-118.112 102.27,1.342 143.17,118.738 245.43,124.555 102.26,5.816 143.17,-98.427 245.43,-96.638 102.26,1.79 82.45,-64.783 245.43,105.228 162.98,170.006 1834.32,339.036 536.87,710.826 C 2491.18,2067.07 -1566.7,2545.34 -2976,2769.04"
         fill="url(#paint3_linear_3_13)"
         id="path8"
         style="fill:url(#paint3_linear_3_13)" />
      <path
         opacity="0.59"
         d="m -1923.72,917.891 c 55.6,8.501 160.16,48.856 266.9,40.803 106.73,-8.054 143.17,-83.037 245.43,-79.458 102.26,3.579 143.16,99.322 245.43,96.638 102.26,-2.685 143.16,-103.259 245.424,-109.523 102.262,-6.263 143.167,79.905 245.429,79.458 102.262,-0.448 143.167,-91.001 245.429,-81.605 102.261,9.395 143.166,119.096 245.428,126.702 102.262,7.606 143.1665,-91.09 245.4285,-90.195 102.2615,0.895 143.1665,97.622 245.4285,94.49 102.262,-3.132 143.167,-103.706 245.429,-109.522 102.262,-5.817 143.166,73.999 245.428,81.605 102.262,7.605 143.167,-47.782 245.426,-45.098 102.26,2.684 143.17,64.246 245.43,57.983 102.26,-6.264 143.17,-90.732 245.43,-88.048 102.26,2.684 143.17,90.642 245.43,100.933 102.26,10.286 143.17,-59.146 245.43,-51.54 102.26,7.605 143.16,94.306 245.43,88.046 102.26,-6.26 143.16,-119.454 245.42,-118.111 102.27,1.342 143.17,118.741 245.43,124.551 102.26,5.82 143.17,-98.423 245.43,-96.634 102.26,1.79 82.45,-64.783 245.43,105.224 162.98,170.01 1834.32,339.04 536.87,710.83 C 2491.18,2127.2 -1566.7,2605.47 -2976,2829.17"
         fill="url(#paint4_linear_3_13)"
         id="path10"
         style="fill:url(#paint4_linear_3_13)" />
      <path
         opacity="0.73"
         d="m -1923.72,978.021 c 55.6,8.501 160.16,48.859 266.9,40.799 106.73,-8.05 143.17,-83.033 245.43,-79.454 102.26,3.579 143.16,99.324 245.43,96.634 102.26,-2.68 143.16,-103.255 245.424,-109.519 102.262,-6.263 143.167,79.909 245.429,79.459 102.262,-0.45 143.167,-91.002 245.429,-81.606 102.261,9.395 143.166,119.096 245.428,126.706 102.262,7.6 143.1665,-91.094 245.4285,-90.199 102.2615,0.895 143.1665,97.619 245.4285,94.489 102.262,-3.13 143.167,-103.705 245.429,-109.521 102.262,-5.817 143.166,74.001 245.428,81.601 102.262,7.61 143.167,-47.778 245.426,-45.094 102.26,2.684 143.17,64.244 245.43,57.984 102.26,-6.26 143.17,-90.733 245.43,-88.049 102.26,2.684 143.17,90.639 245.43,100.929 102.26,10.29 143.17,-59.142 245.43,-51.54 102.26,7.61 143.16,94.31 245.43,88.05 102.26,-6.26 143.16,-119.454 245.42,-118.111 102.27,1.342 143.17,118.741 245.43,124.551 102.26,5.82 143.17,-98.423 245.43,-96.634 102.26,1.794 82.45,-64.783 245.43,105.224 162.98,170.01 1834.32,339.04 536.87,710.83 C 2491.18,2187.33 -1566.7,2665.6 -2976,2889.3"
         fill="url(#paint5_linear_3_13)"
         id="path12"
         style="fill:url(#paint5_linear_3_13)" />
      <path
         opacity="0.86"
         d="m -1923.72,1038.15 c 55.6,8.5 160.16,48.86 266.9,40.8 106.73,-8.05 143.17,-83.033 245.43,-79.454 102.26,3.584 143.16,99.324 245.43,96.634 102.26,-2.68 143.16,-103.255 245.424,-109.519 102.262,-6.263 143.167,79.909 245.429,79.459 102.262,-0.45 143.167,-91.002 245.429,-81.606 102.261,9.395 143.166,119.096 245.428,126.706 102.262,7.6 143.1665,-91.09 245.4285,-90.2 102.2615,0.9 143.1665,97.62 245.4285,94.49 102.262,-3.13 143.167,-103.71 245.429,-109.52 102.262,-5.82 143.166,74 245.428,81.6 102.262,7.61 143.167,-47.78 245.426,-45.09 102.26,2.68 143.17,64.24 245.43,57.98 102.26,-6.26 143.17,-90.73 245.43,-88.05 102.26,2.69 143.17,90.64 245.43,100.93 102.26,10.29 143.17,-59.14 245.43,-51.54 102.26,7.61 143.16,94.31 245.43,88.05 102.26,-6.26 143.16,-119.45 245.42,-118.11 102.27,1.34 143.17,118.74 245.43,124.55 102.26,5.82 143.17,-98.42 245.43,-96.63 102.26,1.79 82.45,-64.787 245.43,105.22 162.98,170.01 1834.32,339.04 536.87,710.83 C 2491.18,2247.46 -1566.7,2725.73 -2976,2949.43"
         fill="url(#paint6_linear_3_13)"
         id="path14"
         style="fill:url(#paint6_linear_3_13)" />
      <path
         d="m -1923.72,1098.28 c 55.6,8.5 160.16,48.86 266.9,40.8 106.73,-8.05 143.17,-83.03 245.43,-79.45 102.26,3.58 143.16,99.32 245.43,96.63 102.26,-2.68 143.16,-103.26 245.424,-109.52 102.262,-6.26 143.167,79.91 245.429,79.46 102.262,-0.45 143.167,-91 245.429,-81.61 102.261,9.4 143.166,119.1 245.428,126.71 102.262,7.6 143.1665,-91.09 245.4285,-90.2 102.2615,0.9 143.1665,97.62 245.4285,94.49 102.262,-3.13 143.167,-103.71 245.429,-109.52 102.262,-5.82 143.166,74 245.428,81.6 102.262,7.61 143.167,-47.78 245.426,-45.09 102.26,2.68 143.17,64.24 245.43,57.98 102.26,-6.26 143.17,-90.73 245.43,-88.05 102.26,2.69 143.17,90.64 245.43,100.93 102.26,10.29 143.17,-59.14 245.43,-51.54 102.26,7.61 143.16,94.31 245.43,88.05 102.26,-6.26 143.16,-119.45 245.42,-118.11 102.27,1.34 143.17,118.74 245.43,124.55 102.26,5.82 143.17,-98.42 245.43,-96.63 102.26,1.79 82.45,-64.79 245.43,105.22 162.98,170.01 1834.32,339.04 536.87,710.83 C 2491.18,2307.59 -1566.7,2785.86 -2976,3009.56"
         fill="url(#paint7_linear_3_13)"
         id="path16"
         style="fill:url(#paint7_linear_3_13)" />
    </g>
  </g>
  <defs
     id="defs94">
    <filter
       id="filter0_dd_3_13"
       x="-2074"
       y="0"
       width="5162"
       height="1726"
       filterUnits="userSpaceOnUse"
       color-interpolation-filters="sRGB">
      <feFlood
         flood-opacity="0"
         result="BackgroundImageFix"
         id="feFlood22" />
      <feColorMatrix
         in="SourceAlpha"
         type="matrix"
         values="0 0 0 0 0 0 0 0 0 0 0 0 0 0 0 0 0 0 127 0"
         result="hardAlpha"
         id="feColorMatrix24" />
      <feOffset
         dy="4"
         id="feOffset26" />
      <feGaussianBlur
         stdDeviation="2"
         id="feGaussianBlur28" />
      <feComposite
         in2="hardAlpha"
         operator="out"
         id="feComposite30" />
      <feColorMatrix
         type="matrix"
         values="0 0 0 0 0 0 0 0 0 0 0 0 0 0 0 0 0 0 0.25 0"
         id="feColorMatrix32" />
      <feBlend
         mode="normal"
         in2="BackgroundImageFix"
         result="effect1_dropShadow_3_13"
         id="feBlend34" />
      <feColorMatrix
         in="SourceAlpha"
         type="matrix"
         values="0 0 0 0 0 0 0 0 0 0 0 0 0 0 0 0 0 0 127 0"
         result="hardAlpha"
         id="feColorMatrix36" />
      <feOffset
         dy="4"
         id="feOffset38" />
      <feGaussianBlur
         stdDeviation="2"
         id="feGaussianBlur40" />
      <feComposite
         in2="hardAlpha"
         operator="out"
         id="feComposite42" />
      <feColorMatrix
         type="matrix"
         values="0 0 0 0 0 0 0 0 0 0 0 0 0 0 0 0 0 0 0.25 0"
         id="feColorMatrix44" />
      <feBlend
         mode="normal"
         in2="effect1_dropShadow_3_13"
         result="effect2_dropShadow_3_13"
         id="feBlend46" />
      <feBlend
         mode="normal"
         in="SourceGraphic"
         in2="effect2_dropShadow_3_13"
         result="shape"
         id="feBlend48" />
    </filter>
    <linearGradient
       id="paint0_linear_3_13"
       x1="359754"
       y1="623"
       x2="359754"
       y2="197188"
       gradientUnits="userSpaceOnUse">
      <stop
         stop-color="#74C7D3"
         id="stop51" />
      <stop
         offset="1"
         stop-color="#E0EEFA"
         id="stop53" />
    </linearGradient>
    <linearGradient
       id="paint1_linear_3_13"
       x1="359754"
       y1="683.13"
       x2="359754"
       y2="197248"
       gradientUnits="userSpaceOnUse">
      <stop
         stop-color="#74C7D3"
         id="stop56" />
      <stop
         offset="1"
         stop-color="#E0EEFA"
         id="stop58" />
    </linearGradient>
    <linearGradient
       id="paint2_linear_3_13"
       x1="359754"
       y1="743.26001"
       x2="359754"
       y2="197308"
       gradientUnits="userSpaceOnUse">
      <stop
         stop-color="#74C7D3"
         id="stop61" />
      <stop
         offset="1"
         stop-color="#E0EEFA"
         id="stop63" />
    </linearGradient>
    <linearGradient
       id="paint3_linear_3_13"
       x1="359754"
       y1="803.39001"
       x2="359754"
       y2="197368"
       gradientUnits="userSpaceOnUse">
      <stop
         stop-color="#74C7D3"
         id="stop66" />
      <stop
         offset="1"
         stop-color="#E0EEFA"
         id="stop68" />
    </linearGradient>
    <linearGradient
       id="paint4_linear_3_13"
       x1="359754"
       y1="863.52002"
       x2="359754"
       y2="197428"
       gradientUnits="userSpaceOnUse">
      <stop
         stop-color="#74C7D3"
         id="stop71" />
      <stop
         offset="1"
         stop-color="#E0EEFA"
         id="stop73" />
    </linearGradient>
    <linearGradient
       id="paint5_linear_3_13"
       x1="359754"
       y1="923.65002"
       x2="359754"
       y2="197488"
       gradientUnits="userSpaceOnUse">
      <stop
         stop-color="#74C7D3"
         id="stop76" />
      <stop
         offset="1"
         stop-color="#E0EEFA"
         id="stop78" />
    </linearGradient>
    <linearGradient
       id="paint6_linear_3_13"
       x1="359754"
       y1="983.78003"
       x2="359754"
       y2="197548"
       gradientUnits="userSpaceOnUse">
      <stop
         stop-color="#74C7D3"
         id="stop81" />
      <stop
         offset="1"
         stop-color="#E0EEFA"
         id="stop83" />
    </linearGradient>
    <linearGradient
       id="paint7_linear_3_13"
       x1="359754"
       y1="1043.91"
       x2="359754"
       y2="197609"
       gradientUnits="userSpaceOnUse">
      <stop
         stop-color="#74C7D3"
         id="stop86" />
      <stop
         offset="1"
         stop-color="#E0EEFA"
         id="stop88" />
    </linearGradient>
    <clipPath
       id="clip0_3_13">
      <rect
         width="5154"
         height="1718"
         fill="#ffffff"
         transform="translate(-2070)"
         id="rect91"
         x="0"
         y="0" />
    </clipPath>
  </defs>
</svg>
